<svg xmlns="http://www.w3.org/2000/svg" xmlns:xlink="http://www.w3.org/1999/xlink" viewBox="0 0 100 100"><path fill="#c17d48" d="M70,42c0,0-10-1.125-20-1.125S30,42,30,42c-8,1-13,6-13,11c0,4,2,6,4,7l5,5h48l5-5c2-1,4-3,4-7 C83,48,78,43,70,42z"/><path fill="#1f212b" d="M74,66H26c-0.265,0-0.52-0.105-0.707-0.293l-4.889-4.889C18.36,59.75,16,57.533,16,53 c0-5.944,5.835-10.987,13.876-11.992c0.113-0.013,10.183-1.133,20.124-1.133s20.011,1.12,20.112,1.131 c0.004,0,0.008,0.001,0.012,0.001C78.165,42.013,84,47.056,84,53c0,4.533-2.36,6.75-4.404,7.818l-4.889,4.889 C74.52,65.895,74.265,66,74,66z M26.414,64h47.172l4.707-4.707c0.076-0.076,0.164-0.139,0.26-0.188C80.84,57.962,82,55.908,82,53 c0-4.116-4.247-9.021-12.118-10.007C69.589,42.96,59.728,41.875,50,41.875c-9.83,0-19.789,1.107-19.888,1.119 C22.249,43.977,18,48.883,18,53c0,2.908,1.16,4.962,3.447,6.105c0.096,0.048,0.184,0.111,0.26,0.188L26.414,64z"/><path fill="#fefdef" d="M71,40c0,5-9.402,5-21,5s-21,0-21-5c0-10,9.402-14,21-14S71,30,71,40z"/><path fill="#1f212b" d="M50,46c-12.292,0-22,0-22-6c0-9.533,8.019-15,22-15s22,5.467,22,15C72,46,62.292,46,50,46z M50,27 c-6.013,0-20,1.267-20,13c0,4,9.715,4,20,4s20,0,20-4C70,28.267,56.013,27,50,27z"/><g><path fill="#f37e98" d="M74,56.5l-6,4l-6-4l-6,4l-6-4l-6,4l-6-4l-6,4l-6-4l-5.05,3.367l8.083,21.523 C29.614,82.958,31.111,84,32.784,84h34.432c1.673,0,3.17-1.042,3.751-2.611l7.993-21.582L74,56.5z"/><path fill="#1f212b" d="M67.216,85H32.784c-2.082,0-3.966-1.312-4.689-3.264l-8.031-21.385l1.872-0.703l8.033,21.389 C30.405,82.213,31.535,83,32.784,83h34.432c1.249,0,2.379-0.787,2.813-1.958l7.922-21.389l1.876,0.694l-7.922,21.389 C71.182,83.688,69.297,85,67.216,85z"/><path fill="#1f212b" d="M45.5 84c-.261 0-.481-.203-.499-.467l-1.5-23c-.018-.276.191-.514.466-.532.285-.008.514.191.532.466l1.5 23c.018.276-.191.514-.466.532C45.521 84 45.51 84 45.5 84zM37.5 84c-.226 0-.431-.154-.486-.384l-3.826-16c-.064-.269.102-.538.37-.603.268-.061.539.102.603.37l3.826 16c.064.269-.102.538-.37.603C37.577 83.996 37.538 84 37.5 84zM32.956 65c-.226 0-.431-.154-.486-.384l-.957-4c-.064-.269.102-.538.37-.603.27-.063.539.102.603.37l.957 4c.064.269-.102.538-.37.603C33.034 64.996 32.995 65 32.956 65zM54.5 84c-.011 0-.022 0-.033-.001-.275-.018-.484-.256-.466-.532l.979-15c.018-.275.248-.478.532-.466.275.018.484.256.466.532l-.979 15C54.982 83.797 54.762 84 54.5 84zM55.674 66c-.011 0-.022 0-.033-.001-.275-.018-.484-.256-.466-.532l.196-3c.018-.275.252-.474.532-.466.275.018.484.256.466.532l-.196 3C56.155 65.797 55.936 66 55.674 66zM62.5 84c-.039 0-.078-.004-.117-.014-.269-.064-.434-.334-.37-.603l1.913-8c.064-.269.337-.431.603-.37.269.064.434.334.37.603l-1.913 8C62.932 83.846 62.727 84 62.5 84zM65.609 71c-.039 0-.078-.004-.117-.014-.269-.064-.434-.334-.37-.603l2.391-10c.064-.268.338-.433.603-.37.269.064.434.334.37.603l-2.391 10C66.041 70.846 65.835 71 65.609 71z"/><path fill="#1f212b" d="M68,61c-0.097,0-0.193-0.028-0.277-0.084L62,57.101l-5.723,3.815c-0.168,0.112-0.387,0.112-0.555,0 L50,57.101l-5.723,3.815c-0.168,0.112-0.387,0.112-0.555,0L38,57.101l-5.723,3.815c-0.168,0.112-0.387,0.112-0.555,0L26,57.101 l-4.848,3.231c-0.23,0.152-0.541,0.091-0.693-0.139c-0.153-0.23-0.091-0.54,0.139-0.693l5.125-3.417 c0.168-0.112,0.387-0.112,0.555,0L32,59.899l5.723-3.815c0.168-0.112,0.387-0.112,0.555,0L44,59.899l5.723-3.815 c0.168-0.112,0.387-0.112,0.555,0L56,59.899l5.723-3.815c0.168-0.112,0.387-0.112,0.555,0L68,59.899l5.723-3.815 c0.168-0.112,0.387-0.112,0.555,0l5.125,3.417c0.23,0.153,0.292,0.463,0.139,0.693c-0.153,0.229-0.464,0.291-0.693,0.139L74,57.101 l-5.723,3.815C68.193,60.972,68.097,61,68,61z"/></g><g><path fill="#f15b6c" d="M58.5,24.158c0,4.782-3.806,4.329-8.5,4.329s-8.5,0.453-8.5-4.329S45.306,15.5,50,15.5 S58.5,19.377,58.5,24.158z"/><path fill="#1f212b" d="M52.157,28.999c-0.339,0-0.685-0.002-1.038-0.005L50,28.988l-1.12,0.006 c-2.845,0.025-5.296,0.042-6.712-1.363C41.382,26.851,41,25.716,41,24.159C41,19.109,45.038,15,50,15s9,4.109,9,9.159 c0,1.557-0.382,2.693-1.168,3.472C56.591,28.862,54.554,28.999,52.157,28.999z M50,27.988l1.128,0.006 c2.615,0.023,4.879,0.039,6-1.073C57.715,26.339,58,25.435,58,24.159C58,19.66,54.411,16,50,16s-8,3.66-8,8.159 c0,1.277,0.285,2.18,0.873,2.763c1.121,1.112,3.386,1.093,6,1.073L50,27.988z"/><path fill="#1f212b" d="M52.588 20c-.138 0-.275-.057-.374-.167-.535-.601-.992-.916-.996-.919-.228-.156-.287-.466-.132-.694.155-.229.464-.288.693-.133.022.015.558.38 1.182 1.082.184.207.165.522-.041.706C52.826 19.958 52.707 20 52.588 20zM54.5 25c-.276 0-.5-.224-.5-.5 0-.976-.197-1.917-.584-2.798-.111-.253.003-.548.256-.659.256-.111.548.004.659.256C54.775 22.307 55 23.384 55 24.5 55 24.776 54.776 25 54.5 25z"/></g></svg>