<svg xmlns="http://www.w3.org/2000/svg" xmlns:xlink="http://www.w3.org/1999/xlink" width="512" height="512" viewBox="0 0 512 512"><path fill="#D6E5E5" d="M306.9,84.6c-0.9,0.6-1.8,1.2-2.9,1.6c-0.1,8-5.6,14-13.3,17.3c-6.7,2.9-15.3,3.6-21.7,7.3c5.7,4,6.2,12.5,6.2,19.8c7.2-1.2,15.1-1.9,19.9,3.7c0.7-0.7,1.8-1.2,3.1-1.2c9.2-0.2,20.2-4.1,20.1-14.9C318.3,106.2,312.4,95.2,306.9,84.6z"/><path fill="#EF4754" d="M286 173.2c-.2-1.6-1-2.9-1.5-4.4 0-.1-.1-.3-.1-.4-.6-.1-1-.4-1.5-.6-4.9 3.1-10.3 5.5-15.7 6.5-4.9.9-9.2-.5-11.7-3.7-.2 2.1-1.6 4-4.4 4-5.3 0-6.8-6.8-3.5-9.1-1.6-.9-3-2-4.2-3.4-.3 5.2-7 8.4-12.8 9-1.3.2-2.8.4-4.4.5-.9 1.5-1.6 3.2-2 5-2.5 10.4 5.6 11.8 14.4 9.3 3.9-1.1 8.5 2.9 6.1 6.9-4.3 7.4 6.4 17.6 13.2 11.6 5.1-4.5 7.2-12.9 7.3-19.4 0-2.6 1.7-5.3 4.6-5.4 4.4 0 10.1-.1 13.9-2.6C285.2 176.1 286.3 175.1 286 173.2zM237.5 139.2c.4-3.6 1.3-7.8 2.7-11.9-.4-.6-.6-1.4-.6-2.4 0-8.5.6-24.8-11.4-25.6-3.1-.2-6.6 1.9-8.1 4.6-.7 1.3-1.9 3.2 0 3.7 5.5 1.5 5.1 9.1-.6 9.9-10.8 1.5-28.7 1.3-33.1 14-1.9 5.4 14.5 6 17.3 6 5.8 0 7.3 7.4 2 9.7-4 1.8-8.4 6.5-9 11-.8 6 5.3 5.3 9.7 4.9 2.2-2.2 4.7-4.4 7.8-4.6 2-.2 4.1.6 5.8 1.7.5.3 1.4.7 1.7.9 4.4-4.7 10.3-8.1 16.6-9.4C237.4 147.7 237.1 143.3 237.5 139.2zM233.1 128.1c-1.4 0-2.6-.3-3.7-1.2-1-.9-1.6-2.1-1.7-3.4-.1-1.3.3-2.7 1.2-3.7.8-.9 2.1-1.7 3.4-1.7h1.5c1.4 0 2.6.3 3.7 1.2 1 .9 1.6 2.1 1.7 3.4.1 1.3-.3 2.7-1.2 3.7-.8.9-2.1 1.7-3.4 1.7H233.1z"/><path fill="#BCBCBC" d="M358.8,153.6c-1.2-1.4-2.8-2.7-4.3-3.8c-3.8-2.7-7.9-4.8-12.1-6.8c-6.6-3-13.5-6-20.6-7.5c-0.3-0.1-0.6-0.2-0.9-0.3c-5.6,5-13.5,7.5-21.3,7.8c1,3.5,1.1,7.2-1,10.4c-0.8,1.3-1.8,2.5-2.8,3.6c13.6-0.1,27.3-0.4,40.8,1c5.9,0.6,11.9,1.4,17.8,1c2.8-0.2,5.6-0.8,5.8-3.3C360.2,155.9,359.5,154.4,358.8,153.6z"/><path fill="#D6E5E5" d="M176.6,130.2c1.7-7,5.8-11.6,11-14.8c-0.7-0.4-1.4-0.7-1.9-1.1c-5.4-3.8-8.4-9.6-11.2-15.5c-4.7,0.6-9.8-0.4-14.5-2.5c-2.2,11.6-3,23.9-1.3,35.5c0.8,5.4,2.2,12.2,6.7,15.8c5.1,4.2,12.3,1.5,17.6-0.9c3.2-1.4,5.6,0.7,6.2,3.3c0.7-1.4,1.6-2.7,2.6-4C182.9,144.3,174.3,139.9,176.6,130.2z"/><path fill="#EF4754" d="M301.2,317c0-0.4,0-0.8,0-1.1c-2.3-0.7-4.4-1.8-6.3-3.5c-6.1-5.2-11.2-15.5-6.7-21.9c-2.1-2.8-3.8-6-4.8-9.4c-1.9,0.1-3.8-0.9-4.4-3.3c-2.5-9.2-29.8-6.1-26.6,5.7c0.8,2.8-0.4,5.3-3.1,6.4c-7.8,3.3-15.6,11.2-12.6,20.4c2.4,7.5,8.3,8.4,14.2,3.7c3.5-2.9,8.5,1.1,7.7,5.1c-2.8,14.9,16.9,19.9,23.6,7.3c2.1-3.9,7.6-3.5,9.2,0.6c1.2,3.2,3.4,1.9,5.8-0.7C299.6,323.7,301.5,320.6,301.2,317z M267.6,305.1c-6.4,0-7.2-10-0.8-10C273.2,295.1,274,305.1,267.6,305.1z"/><path fill="#BCBCBC" d="M390.6,233.1c-3.6,0-5.4-3.2-5.2-5.9c-2.6,5-6.7,8.9-13.1,10.2c-0.1,0.9-0.3,1.7-0.5,2.6c0.3,0.3,0.7,0.6,1,0.9c3.6,3.9,4.6,8.6,2.9,13.7c-2,6.2-8.2,8.9-14.6,10.6c0.1,0,0.2,0,0.3,0c9.6,0,19.3,0.2,28.9-0.8c8.9-0.9,21-2.3,27.4-9.4C432.6,238.7,401.4,233.2,390.6,233.1z"/><path fill="#EF4754" d="M355.8,285.2c-0.2-3.2-1.5-11.6-5.8-11.8c-4-0.2-7.4-1.3-10.2-4.3c-2.7-2.9-3.7-6.5-4.4-10.3c-0.3-1.7-0.4-5.1-2.6-5.6c-7.8-1.8-20.1,2.6-23.6,10.2c-1.2,2.6-3.6,3.2-5.6,2.5c-0.8,0.3-1.7,0.4-2.8,0.2c-13.4-3-7.9,16.4-1.7,21.3c3,2.4,1.8,7.3-1.6,8.5c-2,0.7-1,2.7,0.3,4.6c1,1.6,3,4.8,5,5.2c10,2.4,19.6-2.9,27.7-8.2c1.4-0.9,3.6-1.3,5-0.3C344,302.8,356.5,296,355.8,285.2z M329.4,285.4c-0.8,0.9-2.1,1.7-3.4,1.7h-1.5c-1.4,0-2.6-0.3-3.7-1.2c-1-0.9-1.6-2.1-1.7-3.4c-0.1-1.3,0.3-2.7,1.2-3.7c0.8-0.9,2.1-1.7,3.4-1.7h1.5c1.4,0,2.6,0.3,3.7,1.2c1,0.9,1.6,2.1,1.7,3.4C330.8,283,330.3,284.4,329.4,285.4z"/><path fill="#EF4754" d="M365.6 248.3c-1.4.8-3.1 1.2-5.1 1.3-4.6.2-7.9-6.7-3.2-9.1 1.3-.7 2.7-1.3 4.2-1.7.2-.3.4-.8.6-1.3.5-1.3.6-3.6.1-5.2-2-6-7.8-4.5-12.5-2.4-2.8 1.2-6.7-1.2-6.6-4.3.1-6.2 2.7-18.6-3.5-22.8-3.9-2.6-9.9-.9-13.3 1.8-4.2 3.3-5.8 7.5-4.7 12.7.5 2.5-2.1 5.4-4.6 5.4-9.5-.1-26-3-28.4 10.1-.8 4.5.1 11.1 5.4 12.4 5.3 1.3 10.7.6 16.2.6 1.2 0 2.2.3 2.9.8 7-3.6 15.2-5.3 21.5-3.2 5 1.7 8.6 4.8 9.8 10.2.3 1.3.5 3.8 1.1 5.9.5-.7 1.3-1.2 2.5-1.5 4.5-1.1 9.1-1.7 13.4-3.4 1.3-.5 4.5-1.5 4.8-3.2C366.5 249.7 366.3 248.6 365.6 248.3zM327.6 231.6c-6.4 0-7.2-10-.8-10C333.2 221.6 334 231.6 327.6 231.6zM357.3 266c.2.2.4.3.6.5.3-.4.7-.7 1.2-.9C358.5 265.8 357.9 265.9 357.3 266zM287.4 140.8c-4.2-3.4-12.1-.1-16.8.8-2.5.5-5.4-2.1-5.4-4.6 0-4.9 1.5-13.5-1.6-17.7-.2-.3-.5-.4-.9-.5-.8 2-2.7 3.6-5.4 3.2-.8-.1-1.6 0-3 1.2 0 0-.1.1-.1.1-2.5 2.6-3.6 5.9-3 10 .4 2.9-1.3 4.6-3.5 5-.1.9-.3 1.9-.4 2.9-.3 3.6-.1 7.7 1.2 10.8 1.3.8 2.1 2.1 2.4 3.5 1.6 1.4 3.9 2.1 6.9 1.7 2.4-.4 5.5 2 5.4 4.6-.1 1.9-.5 2.9.8 2.9 1.8.1 4-.8 5.7-1.4 4.7-1.9 9.2-4.4 13.2-7.6C287.2 152.2 294 146.1 287.4 140.8zM261.6 149.1c-6.4 0-7.2-10-.8-10C267.2 139.1 268 149.1 261.6 149.1zM215.2 168.9c-.1 0-.1.1-.2.1-.3.3-.6.5-.9.8-.3.3-.6.6-.9.9.9.1 1.6.5 2.1.9.3-.7.6-1.5.9-2.2C215.8 169.3 215.5 169.1 215.2 168.9z"/><path fill="#D6E5E5" d="M378.6,198.1c-1-6.9-2.7-13.8-5.6-20.2c-1.7-3.7-4.2-8.4-7.6-9.9c-0.8-0.3-1.4-0.8-1.8-1.3c-5.9,3.1-14.7,2.4-20.9,1.9c-5.4-0.4-11.6-1.6-16.6-1.6h-31.4c1.5,4,2.3,8.7,0.1,12.5c-4,7-12.2,9.2-19.9,9.8c-1.4,11.3-6.7,23.7-18.3,26.7c-11.3,2.9-22.2-8.2-22.8-19.2c-5.1,0.5-10.2-0.2-14.3-3.5c-4.1-3.3-5.9-8.5-5.8-13.6c-0.8,0.4-1.8,0.7-2.9,0.6c-16-1-31.9,3.1-47.8,4.3c-11.2,0.9-26.3,1.7-36.5-4.6c-0.6,9.1-2.5,18.1-3.7,27.2c-1.2,8.9-3.1,21.2,1.9,29.3c8.2,13.6,27.9,18.4,42.6,20.4c11.2,1.5,22.7,1.3,33.9,1c11.8-0.4,24-0.5,35.7-2c7.7-0.9,15.4-1.5,23-2.7c6.1-0.9,15.3-1.7,20.1-6.1c0.4-0.3,0.7-0.6,1.1-0.8c-2.4-4.4-3.2-9.9-2.4-14.5c1.3-7.4,5.9-14.4,13-17.4c6.2-2.6,13-2.3,19.7-2.1c1.1-13.6,16.3-24.7,29.8-20c11.6,4,12.3,15.4,12.1,26c7.5-1,15.2,1.3,18,9C381.4,224.7,379.7,205.5,378.6,198.1z"/><path fill="#EF4754" d="M293.1,59.1c-2.7,0.2-5.2-1.9-5.4-4.6c-0.2-2.5-1.5-6-4.2-3.7c-2.5,2.1-5.2,1-6.5-1.2c0.3,9.5-4.3,18.7-13.6,20.1c-0.2,4.6-1.3,9.2-4.6,12.5c-4.2,4.2-9.6,6-15.4,6.8c-6.6,0.9-13.6-0.2-19.2-3.9c-4.6-3-8.7-7.4-14-9.2c-5-1.7-10,0.4-15.1,0.4c-5.7-0.1-10.5-3.4-12.5-8.8c-1.2-3.4-1.6-6.8-1.3-9.9c-2.2-0.1-4.4-1.6-4.6-4.4c-0.3-3.4-1.1-4-3.7-3.8c-3.9,0.3-7.5,2.2-10.7,4.3c-3,2-6.4,4.7-8,7.9c-0.5,1.1-0.5,0.6-0.6,1.7c0.1-0.6,0.2-0.1,0.2,0.2c0.3,0.2,0.8,0.6,1.7,0.9c3.9,1.1,5.8,6.6,1.8,9.1c-11.9,7.4,10.2,18.3,18,15.1c2.8-1.1,5.2,0.7,6.4,3.1c1.9,3.9,3.7,8.1,6.4,11.6c1.3,1.7,2.9,3.4,4.9,4.1c0.8,0.3,1.6,0.5,2.5,0.5c2.1-2.8,7.4-1.6,8.7,2c1.8-0.3,3.5-0.6,5.3-0.9c-1.2-7.4,5-16.7,13.2-18.7c7.9-1.9,17,0.9,21.6,8c3.1,4.9,4.4,10.4,4.9,16c2.8-2.1,6.5-4.2,10.2-5c-0.4-1.8,0-3.8,1.8-5.2c5.8-4.6,13.9-5.6,20.7-7.9c6.8-2.3,13.3-4.9,11.6-13.1c-0.6-2.8,2.2-5.1,4.6-5.4C308.1,76.4,301.5,58.6,293.1,59.1z M200.1,92.1c-6.4,0-7.2-10-0.8-10C205.7,82.1,206.5,92.1,200.1,92.1z M279.7,79.2c0,1.4-0.3,2.6-1.2,3.7c-0.9,1-2.1,1.6-3.4,1.7c-1.3,0.1-2.7-0.3-3.7-1.2c-0.9-0.8-1.7-2.1-1.7-3.4v-1.5c0-1.4,0.3-2.6,1.2-3.7c0.9-1,2.1-1.6,3.4-1.7c1.3-0.1,2.7,0.3,3.7,1.2c0.9,0.8,1.7,2.1,1.7,3.4V79.2z"/><path fill="#D6E5E5" d="M430.2,253.6c-0.5,1.3-1.2,2.5-2,3.9c-6.4,10.5-19.8,14.3-31.2,16c-11,1.6-22,1.6-33.1,1.6c2.3,6.2,2.4,13.6-0.1,19.2c-5.1,11.9-18.8,18.9-30.5,13.1c-6.2,3.8-14.3,7.9-22.1,9c1,12.6-15,27.7-24.6,20.5c-6,5.9-14.7,8.4-23.3,5.7c-8.1-2.6-13.2-8.8-14.6-16.4c-8.8,2.3-18-1.9-21.2-11.9c-2.4-7.5-1.2-14.4,2.2-20.3c-7.7,1.5-15.8,1.5-23.6,1.6c-12.1,0-24.1,1.2-36.1,1.2c-19-0.1-38.7,0.2-57.3-4.4c-9-2.3-19.3-6.4-25.4-13.4c-0.3,7.2-0.8,14.4-1.1,21.6c-0.5,11.9-1.8,24.6,0.1,36.4c3.5,22.3,5.9,45.9,16.1,66.3c11.1,22.2,35.1,31.7,58.3,36.4c26.7,5.5,54.3,6,81.4,6.3c30.7,0.4,61-1.2,91.5-4.3c20.5-2.1,42-5.7,60.4-15.8c17.9-9.9,31.6-25.4,37.8-45.1c6.6-21.1,9.7-44.5,10.3-66.5C442.6,293.9,441.4,271.2,430.2,253.6z"/><path fill="#BCBCBC" d="M186.8 161c-.1-1.8 0-3.5.4-5.2-.3.2-.5.3-.8.5-7.4 3.3-17.5 5.8-24.9.9-1-.7-1.9-1.4-2.7-2.1-.2 0-.3 0-.5 0-9.3-1.2-21.6 3.7-27.6 11-2.5 3-2 4.3 1.6 5.9 3.7 1.6 7.6 2.5 11.6 3 16.5 2.1 33-1.7 49.5-3.5C189.8 169.1 187.1 165.3 186.8 161zM288 253.3c-.2.2-.4.4-.6.6-6.2 5.7-15 7.5-23 8.9-8.8 1.5-17.9 2.7-26.9 3.3-24.4 1.7-50.2 4.6-74.5.5-14.2-2.4-33.3-7.4-43.3-19.3-.3.2-.6.3-.9.5-8.1 3.3-30.5 6.5-26.5 19.6 3.8 12.5 21.4 15.4 32.4 17.1 17.5 2.7 35.9 2.9 53.6 2.2 10.1-.4 20.1-1 30.3-1.1 9.1-.1 18.4-.2 26.9-3.7 2.2-.9 4.1-.2 5.2 1.2.5-.3 1-.6 1.5-.9-.4-10.3 8.5-17 18.8-18.8 6.6-1.2 16.1-.7 22.1 3.6 2.2-7.2 7.8-11.2 14.9-11.3C294.6 255.5 291.2 254.8 288 253.3z"/><path fill="#EF4754" d="M265.5,43.8c-4.4-9-17.6-2.3-24.9-1.2c-2.5,0.4-5.5-2-5.4-4.6c0.2-7.3-1.9-16.4-10.9-14.7c-5.9,1.1-8.8,5.9-6.4,11.2c2.4,5.2-4.7,8.3-8.2,5c-0.6,0-1.1-0.1-1.7-0.3c-1-0.4-2.3,0-3.6,0.6c0.5,1.8,0.8,3.6,1.5,5.2c1.6,3.7-2.2,7-5.7,6.6c-4.4-0.6-9.4,1.7-9.2,6.8c0.1,2.7,0.4,8,4.1,7.8c8.1-0.3,14.9-2.4,22.5,2c7.2,4.2,13,11.6,22.1,11c3.6-0.2,9-0.7,11.5-3.7c2.6-2.9,2.3-6.9,2-10.6c-0.3-3.3,2.8-5.9,5.9-5.3C268.2,61.3,268.3,49.5,265.5,43.8z M234.9,61.9c-0.8,0.9-2.1,1.7-3.4,1.7h-1.5c-1.4,0-2.6-0.3-3.7-1.2c-1-0.9-1.6-2.1-1.7-3.4c-0.1-1.3,0.3-2.7,1.2-3.7c0.8-0.9,2.1-1.7,3.4-1.7h1.5c1.4,0,2.6,0.3,3.7,1.2c1,0.9,1.6,2.1,1.7,3.4C236.3,59.6,235.8,60.9,234.9,61.9z"/><path fill="#010101" d="M329 278.3c-1.1-.9-2.3-1.2-3.7-1.2h-1.5c-1.2 0-2.6.8-3.4 1.7-.9 1-1.3 2.4-1.2 3.7.1 1.3.7 2.5 1.7 3.4 1.1.9 2.3 1.2 3.7 1.2h1.5c1.2 0 2.6-.8 3.4-1.7.9-1 1.3-2.4 1.2-3.7C330.6 280.4 329.9 279.2 329 278.3zM326.8 221.6c-6.4 0-5.6 10 .8 10C334 231.6 333.2 221.6 326.8 221.6zM266.8 295.1c-6.4 0-5.6 10 .8 10C274 305.1 273.2 295.1 266.8 295.1zM260.8 139.1c-6.4 0-5.6 10 .8 10C268 149.1 267.2 139.1 260.8 139.1zM237.5 119.3c-1.1-.9-2.3-1.2-3.7-1.2h-1.5c-1.2 0-2.6.8-3.4 1.7-.9 1-1.3 2.4-1.2 3.7.1 1.3.7 2.5 1.7 3.4 1.1.9 2.3 1.2 3.7 1.2h1.5c1.2 0 2.6-.8 3.4-1.7.9-1 1.3-2.4 1.2-3.7C239.1 121.4 238.5 120.2 237.5 119.3z"/><path fill="#010101" d="M451.7,293.5c-1.2-17-5.1-34.8-15.4-48.7c-1.3-1.8-3.2-2.3-4.9-2c-3.4-14-27.8-19.6-41.6-19.7c-1.4,0-2.4,0.4-3.2,1.2c2.8-7.4,3-16.6,2.3-23.9c-0.8-8.8-3-17.6-6.5-25.7c-2.6-5.9-6.4-12.8-12.6-15.5c-0.1,0-0.1-0.1-0.2-0.1c0.1-0.4,0.2-0.9,0.3-1.4c1.6-10.4-11.1-17.5-18.7-21.5c-7.5-3.9-16-7.6-24.4-9.8c0.3-0.8,0.6-1.7,0.8-2.6c4.2-16.6-7.3-34.4-14.4-48.5c-0.2-0.4-0.4-0.6-0.7-0.9c1.4-10.2-5.1-22.7-15.9-25c-2.5-6.7-9.4-11.8-16-8.8c-0.7-1.9-2.3-3.5-4.9-3.5c-0.9,0-1.6,0.2-2.3,0.5c-2.7-4.2-6.8-7.3-11.9-8.2c-5.6-1-11.3,0.7-16.8,2.1c-1.6-10.8-9-20-21.3-18.2c-8.6,1.2-15.7,7.9-16.5,15.9c-4.1,0.1-7.9,1.9-11.6,4.3c-2.3,1.4-2.9,4.8-1.3,6.9c0.3,0.5,0.6,1,0.8,1.6c-3.8,0.8-7,2.7-9.3,5.4c-1.7-4.3-5.1-7.5-10.2-8c-6.9-0.7-13.7,2.6-19.3,6.3c-5.3,3.6-10,8.4-12,14.6c-1.2,3.8,0,7.1,2.3,9.5c-5.3,6.9-2,14.9,4.6,20.8c-3.3,15.3-4.7,32.3-1.2,47.6c0.5,2.4,1.2,4.7,2.1,6.8c-9.3,0.9-18.4,5.1-25.4,11.1c-5.3,4.5-8.1,10.1-7,15.2c-1.6,0.8-2.8,2.4-2.8,4.6c-0.3,20.3-10.2,43-2.1,62.8c-12.1,4.8-31.1,7.8-32.6,23.6c-2.3,0.4-4.3,2.2-4.4,5.1c-0.1,23-3,46-1.5,69c0.7,10.9,3.3,22.3,5.4,33c2.2,11.4,5.1,22.7,9.7,33.4c4.1,9.7,9.9,18.8,18.1,25.5c9.6,7.9,21.3,12.9,33,16.8c24.1,8,50.3,9.3,75.5,10.2c31.4,1.1,62.9,1.1,94.2-1.5c23.1-1.9,46.7-4.1,68.8-11.5c18.7-6.3,35.9-17.2,47.6-33.2c12.9-17.7,17-39.4,20.3-60.6C451.6,330.3,453,311.8,451.7,293.5z M385.4,227.1c-0.2,2.8,1.6,5.9,5.2,5.9c10.8,0.1,42,5.6,27.1,21.8c-6.5,7-18.5,8.4-27.4,9.4c-9.6,1-19.3,0.8-28.9,0.8c-0.1,0-0.2,0-0.3,0c6.3-1.7,12.5-4.4,14.6-10.6c1.7-5.1,0.7-9.8-2.9-13.7c-0.3-0.3-0.6-0.6-1-0.9c0.2-0.8,0.4-1.7,0.5-2.6C378.6,236,382.8,232.2,385.4,227.1z M348,257.9c-1.1,0.3-1.9,0.8-2.5,1.5c-0.6-2.1-0.8-4.6-1.1-5.9c-1.1-5.3-4.7-8.5-9.8-10.2c-6.3-2.1-14.5-0.5-21.5,3.2c-0.8-0.5-1.8-0.9-2.9-0.8c-5.4,0.1-10.8,0.7-16.2-0.6c-5.3-1.2-6.2-7.9-5.4-12.4c2.3-13.1,18.9-10.2,28.4-10.1c2.5,0,5.1-2.9,4.6-5.4c-1.1-5.2,0.5-9.5,4.7-12.7c3.4-2.7,9.4-4.4,13.3-1.8c6.2,4.2,3.5,16.6,3.5,22.8c0,3.1,3.8,5.6,6.6,4.3c4.7-2.1,10.5-3.6,12.5,2.4c0.5,1.6,0.4,3.9-0.1,5.2c-0.2,0.6-0.4,1-0.6,1.3c-1.5,0.4-2.9,1-4.2,1.7c-4.7,2.5-1.4,9.3,3.2,9.1c1.9-0.1,3.6-0.6,5.1-1.3c0.7,0.4,0.9,1.4,0.6,3c-0.3,1.7-3.5,2.7-4.8,3.2C357.1,256.2,352.5,256.8,348,257.9z M359.1,265.6c-0.5,0.2-0.9,0.6-1.2,0.9c-0.2-0.2-0.4-0.4-0.6-0.5C357.9,265.9,358.5,265.8,359.1,265.6z M250.9,314c-5.9,4.8-11.8,3.9-14.2-3.7c-3-9.3,4.8-17.2,12.6-20.4c2.6-1.1,3.8-3.6,3.1-6.4c-3.3-11.8,24.1-14.9,26.6-5.7c0.7,2.4,2.5,3.4,4.4,3.3c1,3.4,2.6,6.7,4.8,9.4c-4.5,6.4,0.7,16.7,6.7,21.9c1.9,1.7,4.1,2.8,6.3,3.5c0,0.4,0,0.7,0,1.1c0.3,3.6-1.6,6.7-4,9.3c-2.4,2.6-4.6,3.9-5.8,0.7c-1.6-4.1-7.1-4.4-9.2-0.6c-6.7,12.6-26.4,7.6-23.6-7.3C259.3,315,254.4,311.1,250.9,314z M297.6,300.4c-1.3-1.9-2.3-3.9-0.3-4.6c3.4-1.2,4.6-6.1,1.6-8.5c-6.2-4.9-11.7-24.3,1.7-21.3c1.1,0.2,2,0.1,2.8-0.2c2.1,0.6,4.5,0,5.6-2.5c3.5-7.6,15.8-12.1,23.6-10.2c2.1,0.5,2.3,3.9,2.6,5.6c0.7,3.8,1.7,7.4,4.4,10.3c2.8,3,6.2,4.1,10.2,4.3c4.3,0.2,5.6,8.6,5.8,11.8c0.7,10.8-11.8,17.6-20.4,12c-1.5-1-3.7-0.6-5,0.3c-8.1,5.3-17.8,10.7-27.7,8.2C300.6,305.2,298.7,302,297.6,300.4z M321.7,135.5c7.1,1.5,14.1,4.5,20.6,7.5c4.2,1.9,8.4,4.1,12.1,6.8c1.5,1.1,3.1,2.3,4.3,3.8c0.7,0.9,1.4,2.3,1.4,2.2c-0.2,2.5-3,3-5.8,3.3c-5.9,0.4-12-0.3-17.8-1c-13.6-1.4-27.2-1.1-40.8-1c1-1.2,1.9-2.4,2.8-3.6c2.1-3.2,2-6.9,1-10.4c7.9-0.3,15.8-2.8,21.3-7.8C321.1,135.4,321.4,135.4,321.7,135.5z M306.9,84.6c5.5,10.6,11.4,21.6,11.5,33.6c0.1,10.7-10.9,14.6-20.1,14.9c-1.3,0-2.4,0.5-3.1,1.2c-4.9-5.6-12.8-5-19.9-3.7c0.1-7.3-0.4-15.8-6.2-19.8c6.4-3.8,15-4.4,21.7-7.3c7.7-3.3,13.2-9.2,13.3-17.3C305.1,85.8,306.1,85.2,306.9,84.6z M238.5,185.9c-8.8,2.5-16.9,1.1-14.4-9.3c0.4-1.8,1.1-3.5,2-5c1.6-0.2,3.1-0.4,4.4-0.5c5.8-0.7,12.5-3.8,12.8-9c1.2,1.4,2.6,2.5,4.2,3.4c-3.2,2.4-1.8,9.1,3.5,9.1c2.8,0,4.2-1.9,4.4-4c2.5,3.2,6.8,4.6,11.7,3.7c5.4-1,10.8-3.4,15.7-6.5c0.4,0.3,0.9,0.5,1.5,0.6c0,0.1,0.1,0.2,0.1,0.4c0.5,1.5,1.2,2.8,1.5,4.4c0.3,1.9-0.9,2.9-2.3,3.8c-3.8,2.5-9.5,2.5-13.9,2.6c-2.9,0-4.6,2.8-4.6,5.4c-0.1,6.5-2.2,15-7.3,19.4c-6.9,6-17.6-4.2-13.2-11.6C247,188.8,242.4,184.8,238.5,185.9z M214.3,158.6c-3.1,0.2-5.6,2.4-7.8,4.6c-4.4,0.4-10.5,1.1-9.7-4.9c0.6-4.5,5-9.2,9-11c5.3-2.3,3.7-9.7-2-9.7c-2.7,0-19.1-0.6-17.3-6c4.4-12.7,22.3-12.5,33.1-14c5.7-0.8,6-8.4,0.6-9.9c-1.9-0.5-0.7-2.3,0-3.7c1.4-2.7,5-4.8,8.1-4.6c12,0.8,11.4,17.1,11.4,25.6c0,0.9,0.2,1.7,0.6,2.4c-1.5,4.1-2.4,8.3-2.7,11.9c-0.4,4.1-0.2,8.5,0.8,12.6c-6.4,1.4-12.2,4.7-16.6,9.4c-0.3-0.3-1.2-0.6-1.7-0.9C218.4,159.2,216.3,158.5,214.3,158.6z M216.2,169.5c-0.3,0.7-0.6,1.4-0.9,2.2c-0.5-0.5-1.2-0.8-2.1-0.9c0.3-0.3,0.6-0.6,0.9-0.9c0.3-0.3,0.6-0.5,0.9-0.8c0.1-0.1,0.1-0.1,0.2-0.1C215.5,169.1,215.8,169.3,216.2,169.5z M191.8,146.2c-1,1.2-1.9,2.6-2.6,4c-0.6-2.7-3-4.8-6.2-3.3c-5.3,2.4-12.5,5-17.6,0.9c-4.5-3.6-5.9-10.4-6.7-15.8c-1.7-11.6-0.9-23.9,1.3-35.5c4.7,2.1,9.8,3.1,14.5,2.5c2.8,5.8,5.9,11.7,11.2,15.5c0.5,0.4,1.2,0.7,1.9,1.1c-5.2,3.2-9.3,7.8-11,14.8C174.3,139.9,182.9,144.3,191.8,146.2z M282.8,155.7c-4,3.1-8.5,5.7-13.2,7.6c-1.7,0.7-3.8,1.5-5.7,1.4c-1.3-0.1-0.9-1-0.8-2.9c0.2-2.6-2.9-5-5.4-4.6c-3.1,0.5-5.3-0.2-6.9-1.7c-0.3-1.4-1.1-2.7-2.4-3.5c-1.3-3.2-1.5-7.2-1.2-10.8c0.1-1,0.2-1.9,0.4-2.9c2.2-0.5,3.9-2.2,3.5-5c-0.6-4,0.5-7.3,3-10c0,0,0.1-0.1,0.1-0.1c1.4-1.1,2.1-1.3,3-1.2c2.7,0.4,4.6-1.2,5.4-3.2c0.4,0,0.7,0.2,0.9,0.5c3.1,4.2,1.6,12.8,1.6,17.7c0,2.5,2.8,5.1,5.4,4.6c4.7-0.8,12.6-4.1,16.8-0.8C294,146.1,287.2,152.2,282.8,155.7z M200.2,51.5c3.5,0.5,7.2-2.8,5.7-6.6c-0.7-1.7-1.1-3.5-1.5-5.2c1.3-0.6,2.6-1,3.6-0.6c0.6,0.2,1.2,0.3,1.7,0.3c3.6,3.3,10.6,0.2,8.2-5c-2.5-5.3,0.4-10.1,6.4-11.2c9-1.7,11.2,7.4,10.9,14.7c-0.1,2.6,2.9,5,5.4,4.6c7.3-1.2,20.5-7.8,24.9,1.2c2.8,5.7,2.7,17.6-6.3,15.9c-3.2-0.6-6.2,2-5.9,5.3c0.3,3.7,0.6,7.6-2,10.6c-2.5,2.9-7.9,3.4-11.5,3.7c-9.1,0.6-14.9-6.9-22.1-11c-7.6-4.4-14.4-2.3-22.5-2c-3.8,0.2-4.1-5.1-4.1-7.8C190.8,53.2,195.8,51,200.2,51.5z M154.3,61.5c1.6-3.2,5-5.9,8-7.9c3.2-2.2,6.9-4,10.7-4.3c2.6-0.2,3.4,0.3,3.7,3.8c0.2,2.9,2.4,4.3,4.6,4.4c-0.3,3.1,0.1,6.5,1.3,9.9c1.9,5.5,6.7,8.8,12.5,8.8c5.1,0.1,10.1-2.1,15.1-0.4c5.3,1.8,9.4,6.2,14,9.2c5.6,3.7,12.6,4.8,19.2,3.9c5.8-0.8,11.2-2.6,15.4-6.8c3.3-3.2,4.4-7.9,4.6-12.5c9.3-1.4,13.9-10.6,13.6-20.1c1.4,2.2,4,3.3,6.5,1.2c2.7-2.3,4.1,1.3,4.2,3.7c0.2,2.8,2.7,4.8,5.4,4.6c8.4-0.5,15,17.3,5.2,18.5c-2.4,0.3-5.2,2.6-4.6,5.4c1.7,8.2-4.8,10.8-11.6,13.1c-6.8,2.3-14.9,3.3-20.7,7.9c-1.8,1.4-2.3,3.4-1.8,5.2c-3.8,0.8-7.5,2.9-10.2,5c-0.5-5.6-1.8-11.1-4.9-16c-4.5-7.1-13.7-9.9-21.6-8c-8.2,2-14.4,11.3-13.2,18.7c-1.8,0.3-3.5,0.5-5.3,0.9c-1.3-3.6-6.5-4.8-8.7-2c-0.8,0-1.7-0.2-2.5-0.5c-2.1-0.8-3.6-2.5-4.9-4.1c-2.7-3.5-4.4-7.7-6.4-11.6c-1.2-2.4-3.6-4.2-6.4-3.1c-7.8,3.1-29.9-7.7-18-15.1c4-2.5,2.1-7.9-1.8-9.1c-0.9-0.3-1.5-0.7-1.7-0.9c0-0.3-0.1-0.7-0.2-0.2C153.8,62,153.8,62.5,154.3,61.5z M130.6,166c6-7.3,18.3-12.2,27.6-11c0.2,0,0.3,0,0.5,0c0.8,0.8,1.7,1.5,2.7,2.1c7.4,4.9,17.4,2.5,24.9-0.9c0.3-0.1,0.6-0.3,0.8-0.5c-0.4,1.7-0.5,3.4-0.4,5.2c0.3,4.2,3,8,6.5,10.4c-16.5,1.8-33,5.6-49.5,3.5c-4-0.5-7.9-1.4-11.6-3C128.7,170.3,128.2,169,130.6,166z M122.7,207.4c1.2-9.1,3.1-18.1,3.7-27.2c10.2,6.3,25.2,5.5,36.5,4.6c15.9-1.2,31.8-5.3,47.8-4.3c1.1,0.1,2.1-0.2,2.9-0.6c-0.1,5.1,1.7,10.3,5.8,13.6c4.1,3.3,9.2,4,14.3,3.5c0.5,11,11.4,22.1,22.8,19.2c11.6-3,17-15.4,18.3-26.7c7.7-0.6,15.9-2.8,19.9-9.8c2.2-3.8,1.4-8.5-0.1-12.5h31.4c5,0,11.2,1.1,16.6,1.6c6.2,0.5,15,1.2,20.9-1.9c0.4,0.5,1,1,1.8,1.3c3.4,1.5,5.9,6.1,7.6,9.9c2.9,6.4,4.6,13.3,5.6,20.2c1,7.4,2.8,26.6-7.4,29.3c-2.8-7.6-10.5-10-18-9c0.2-10.6-0.5-22-12.1-26c-13.5-4.7-28.6,6.5-29.8,20c-6.7-0.2-13.5-0.5-19.7,2.1c-7.1,3-11.7,10-13,17.4c-0.8,4.6,0,10.1,2.4,14.5c-0.4,0.2-0.8,0.5-1.1,0.8c-4.8,4.4-14,5.2-20.1,6.1c-7.6,1.2-15.3,1.8-23,2.7c-11.8,1.4-23.9,1.6-35.7,2c-11.2,0.3-22.7,0.6-33.9-1c-14.7-2-34.3-6.8-42.6-20.4C119.7,228.5,121.5,216.3,122.7,207.4z M118.8,247.8c0.3-0.1,0.6-0.3,0.9-0.5c10.1,11.9,29.1,16.9,43.3,19.3c24.2,4.1,50.1,1.2,74.5-0.5c8.9-0.6,18-1.8,26.9-3.3c8-1.4,16.9-3.2,23-8.9c0.2-0.2,0.4-0.4,0.6-0.6c3.2,1.6,6.6,2.2,10.1,2.5c-7.1,0-12.7,4.1-14.9,11.3c-6-4.3-15.5-4.8-22.1-3.6c-10.4,1.8-19.2,8.6-18.8,18.8c-0.5,0.3-1,0.6-1.5,0.9c-1.1-1.4-3-2.2-5.2-1.2c-8.5,3.5-17.9,3.6-26.9,3.7c-10.1,0.1-20.1,0.7-30.3,1.1c-17.7,0.7-36.1,0.5-53.6-2.2c-11-1.7-28.6-4.6-32.4-17.1C88.3,254.3,110.8,251.2,118.8,247.8z M442.1,314.3c-0.6,22-3.6,45.4-10.3,66.5c-6.2,19.7-19.9,35.2-37.8,45.1c-18.3,10-39.8,13.7-60.4,15.8c-30.5,3.1-60.9,4.7-91.5,4.3c-27.1-0.3-54.7-0.9-81.4-6.3c-23.1-4.7-47.2-14.2-58.3-36.4c-10.2-20.4-12.6-44-16.1-66.3c-1.8-11.8-0.6-24.6-0.1-36.4c0.3-7.2,0.8-14.4,1.1-21.6c6.1,7.1,16.4,11.2,25.4,13.4c18.6,4.7,38.3,4.3,57.3,4.4c12.1,0.1,24.1-1.2,36.1-1.2c7.8,0,15.9,0,23.6-1.6c-3.4,5.8-4.6,12.8-2.2,20.3c3.2,10,12.5,14.2,21.2,11.9c1.4,7.5,6.5,13.8,14.6,16.4c8.6,2.7,17.3,0.2,23.3-5.7c9.6,7.2,25.6-7.9,24.6-20.5c7.8-1.1,15.9-5.2,22.1-9c11.8,5.8,25.5-1.2,30.5-13.1c2.4-5.6,2.4-13.1,0.1-19.2c11.1,0,22.1,0,33.1-1.6c11.4-1.7,24.9-5.5,31.2-16c0.8-1.3,1.5-2.6,2-3.9C441.4,271.2,442.6,293.9,442.1,314.3z"/><path fill="#010101" d="M234.5 54.9c-1.1-.9-2.3-1.2-3.7-1.2h-1.5c-1.2 0-2.6.8-3.4 1.7-.9 1-1.3 2.4-1.2 3.7.1 1.3.7 2.5 1.7 3.4 1.1.9 2.3 1.2 3.7 1.2h1.5c1.2 0 2.6-.8 3.4-1.7.9-1 1.3-2.4 1.2-3.7C236.1 56.9 235.5 55.7 234.5 54.9zM199.3 82.1c-6.4 0-5.6 10 .8 10C206.5 92.1 205.7 82.1 199.3 82.1zM278 74.4c-1-.9-2.4-1.3-3.7-1.2-1.3.1-2.5.7-3.4 1.7-.9 1.1-1.2 2.3-1.2 3.7V80c0 1.2.8 2.6 1.7 3.4 1 .9 2.4 1.3 3.7 1.2 1.3-.1 2.5-.7 3.4-1.7.9-1.1 1.2-2.3 1.2-3.7v-1.5C279.7 76.5 278.9 75.2 278 74.4z"/></svg>