<svg xmlns="http://www.w3.org/2000/svg" xmlns:xlink="http://www.w3.org/1999/xlink" viewBox="0 0 64 64"><radialGradient id="QBv7UjRFY15woNA8ud7xba" cx="-103.526" cy="153.408" r="1" gradientTransform="matrix(25.511 0 0 -25.511 2673.059 3934.588)" gradientUnits="userSpaceOnUse" spreadMethod="reflect"><stop offset="0" stop-color="#aaedff"/><stop offset=".331" stop-color="#c1f2ff"/><stop offset=".738" stop-color="#d7f7ff"/><stop offset="1" stop-color="#dff9ff"/></radialGradient><path fill="url(#QBv7UjRFY15woNA8ud7xba)" d="M52,5H37h-5H15c-2.209,0-4,1.791-4,4c0,2.209,1.791,4,4,4h2c1.105,0,2,0.895,2,2l0,0l0,0 c0,1.104-0.896,2-2,2H7c-2.209,0-4,1.791-4,4c0,2.209,1.791,4,4,4h4c1.105,0,2,0.895,2,2l0,0l0,0c0,1.104-0.895,2-2,2H9 c-2.209,0-4,1.791-4,4c0,2.209,1.791,4,4,4h48c2.209,0,4-1.791,4-4c0-2.209-1.791-4-4-4h-6c-1.105,0-2-0.896-2-2l0,0l0,0 c0-1.105,0.895-2,2-2c2.209,0,4-1.791,4-4c0-2.209-1.791-4-4-4h-5c-1.104,0-2-0.896-2-2l0,0l0,0c0-1.105,0.896-2,2-2h6 c2.209,0,4-1.791,4-4C56,6.791,54.209,5,52,5"/><linearGradient id="QBv7UjRFY15woNA8ud7xbb" x1="31.5" x2="31.5" y1="28" y2="18" gradientUnits="userSpaceOnUse" spreadMethod="reflect"><stop offset="0" stop-color="#ff5840"/><stop offset=".007" stop-color="#ff5840"/><stop offset=".989" stop-color="#fa528c"/><stop offset="1" stop-color="#fa528c"/></linearGradient><path fill="url(#QBv7UjRFY15woNA8ud7xbb)" d="M30 18H33V28H30z"/><linearGradient id="QBv7UjRFY15woNA8ud7xbc" x1="31.5" x2="31.5" y1="25.15" y2="9" gradientUnits="userSpaceOnUse" spreadMethod="reflect"><stop offset="0" stop-color="#ff5840"/><stop offset=".007" stop-color="#ff5840"/><stop offset=".989" stop-color="#fa528c"/><stop offset="1" stop-color="#fa528c"/></linearGradient><path fill="url(#QBv7UjRFY15woNA8ud7xbc)" d="M40.887,12.919c-0.406-1.943-2.013-3.488-3.968-3.837c-2.006-0.358-3.828,0.483-4.903,1.919 c-0.253,0.338-0.78,0.338-1.032,0c-1.076-1.436-2.897-2.277-4.903-1.919c-1.954,0.349-3.562,1.893-3.968,3.837 c-0.383,1.833,0.237,3.539,1.412,4.675l-0.002,0.001l6.875,7.095c0.606,0.613,1.597,0.613,2.203,0l6.872-7.093l-0.001,0 C40.649,16.461,41.27,14.754,40.887,12.919z"/><linearGradient id="QBv7UjRFY15woNA8ud7xbd" x1="-81" x2="-80" y1="156.313" y2="156.313" gradientTransform="matrix(0 -16 -16 0 2527.5 -1254)" gradientUnits="userSpaceOnUse" spreadMethod="reflect"><stop offset="0" stop-color="#f1bb5d"/><stop offset=".426" stop-color="#fbc080"/><stop offset=".672" stop-color="#ffc28f"/><stop offset="1" stop-color="#ffc28f"/></linearGradient><path fill="url(#QBv7UjRFY15woNA8ud7xbd)" d="M27.5,29c-0.828,0-1.5,0.671-1.5,1.5v2c0,0.828-0.672,1.5-1.5,1.5c-0.828,0-1.5-0.672-1.5-1.5 c0-0.829-0.672-1.5-1.5-1.5c-0.828,0-1.5,0.671-1.5,1.5V34c0,1.105-0.896,2-2,2c-1.105,0-2-0.895-2-2v-3l0,0v6v4h15h1h5 c-1.105,0-2-0.896-2-2c0-1.104-0.896-2-2-2h-1c-0.811,0-1.509-0.483-1.823-1.177C29.483,35.509,29,34.811,29,34v-3.5 C29,29.671,28.328,29,27.5,29"/><linearGradient id="QBv7UjRFY15woNA8ud7xbe" x1="-76" x2="-75" y1="159.993" y2="159.993" gradientTransform="matrix(0 -12 -12 0 1958.5 -871)" gradientUnits="userSpaceOnUse" spreadMethod="reflect"><stop offset="0" stop-color="#ffac67"/><stop offset="1" stop-color="#ffad6b"/><stop offset="1" stop-color="#ffad6b"/></linearGradient><path fill="url(#QBv7UjRFY15woNA8ud7xbe)" d="M41.5,30c-0.828,0-1.5,0.671-1.5,1.5V32v1c0,1.105-0.895,2-2,2s-2-0.895-2-2v-0.5 c0-0.829-0.672-1.5-1.5-1.5c-0.828,0-1.5,0.671-1.5,1.5V34c0,1.105-0.896,2-2,2c-0.293,0-0.572-0.063-0.823-0.177 C30.491,36.517,31.189,37,32,37h1c1.104,0,2,0.896,2,2c0,1.105,0.895,2,2,2h10v-4v-3c0,1.105-0.896,2-2,2c-1.104,0-2-0.895-2-2v-2.5 C43,30.671,42.328,30,41.5,30"/><linearGradient id="QBv7UjRFY15woNA8ud7xbf" x1="-72" x2="-71" y1="163.2" y2="163.2" gradientTransform="matrix(0 -10 -10 0 1663.5 -684)" gradientUnits="userSpaceOnUse" spreadMethod="reflect"><stop offset="0" stop-color="#ff5c4c"/><stop offset=".221" stop-color="#fd5d65"/><stop offset=".527" stop-color="#fc5e82"/><stop offset=".793" stop-color="#fa5f93"/><stop offset=".989" stop-color="#fa5f99"/><stop offset="1" stop-color="#fa5f99"/></linearGradient><path fill="url(#QBv7UjRFY15woNA8ud7xbf)" d="M42,26h-1h-4h-3h-4h-3h-4h-2c-2.762,0-5,2.239-5,5l0,0v3c0,1.105,0.896,2,2,2 c1.104,0,2-0.895,2-2v-1.5c0-0.829,0.672-1.5,1.5-1.5c0.828,0,1.5,0.671,1.5,1.5c0,0.828,0.672,1.5,1.5,1.5 c0.828,0,1.5-0.672,1.5-1.5v-2c0-0.829,0.672-1.5,1.5-1.5c0.828,0,1.5,0.671,1.5,1.5V34c0,0.811,0.483,1.509,1.177,1.823 C30.428,35.937,30.707,36,31,36c1.105,0,2-0.895,2-2v-1.5c0-0.829,0.672-1.5,1.5-1.5c0.828,0,1.5,0.671,1.5,1.5V33 c0,1.105,0.895,2,2,2s2-0.895,2-2v-1v-0.5c0-0.829,0.672-1.5,1.5-1.5c0.828,0,1.5,0.671,1.5,1.5V34c0,1.105,0.896,2,2,2 c1.105,0,2-0.895,2-2l0,0v-3C47,28.239,44.762,26,42,26"/><linearGradient id="QBv7UjRFY15woNA8ud7xbg" x1="-81" x2="-80" y1="156" y2="156" gradientTransform="matrix(0 -16 -16 0 2527.5 -1239)" gradientUnits="userSpaceOnUse" spreadMethod="reflect"><stop offset="0" stop-color="#f1bb5d"/><stop offset=".426" stop-color="#fbc080"/><stop offset=".672" stop-color="#ffc28f"/><stop offset="1" stop-color="#ffc28f"/></linearGradient><path fill="url(#QBv7UjRFY15woNA8ud7xbg)" d="M17.5,44c-0.828,0-1.5,0.672-1.5,1.5v2c0,0.828-0.672,1.5-1.5,1.5c-0.828,0-1.5-0.672-1.5-1.5 c0-0.828-0.672-1.5-1.5-1.5c-0.828,0-1.5,0.672-1.5,1.5V51c0,1.105-0.896,2-2,2c-1.105,0-2-0.895-2-2v6h51H20c-1.105,0-2-0.896-2-2 c0-1.105,0.895-2,2-2h18c1.105,0,2-0.895,2-2c0-1.104-0.895-2-2-2h-3c-0.091,0-0.18-0.006-0.268-0.018 C34.656,48.994,34.579,49,34.5,49c-0.828,0-1.5-0.672-1.5-1.5c0-0.828-0.672-1.5-1.5-1.5S30,46.672,30,47.5V49c0,1.105-0.895,2-2,2 c-1.104,0-2-0.895-2-2v-1.5c0-0.828-0.672-1.5-1.5-1.5c-0.828,0-1.5,0.672-1.5,1.5V49c0,1.105-0.896,2-2,2c-1.105,0-2-0.895-2-2 v-3.5C19,44.672,18.328,44,17.5,44"/><linearGradient id="QBv7UjRFY15woNA8ud7xbh" x1="-55.473" x2="-54.473" y1="176.422" y2="176.422" gradientTransform="matrix(0 -5.9219 -5.9219 0 1076.26 -266.257)" gradientUnits="userSpaceOnUse" spreadMethod="reflect"><stop offset="0" stop-color="#49cff0"/><stop offset=".207" stop-color="#54d3f2"/><stop offset=".572" stop-color="#72def7"/><stop offset="1" stop-color="#9cedff"/></linearGradient><path fill="url(#QBv7UjRFY15woNA8ud7xbh)" d="M59,57h-2H6H4c-1.105,0-2,0.895-2,2s0.896,2,2,2h55c1.105,0,2-0.895,2-2S60.104,57,59,57"/><linearGradient id="QBv7UjRFY15woNA8ud7xbi" x1="-36" x2="-35" y1="192" y2="192" gradientTransform="matrix(0 -4 -4 0 782 -87)" gradientUnits="userSpaceOnUse" spreadMethod="reflect"><stop offset="0" stop-color="#ffac67"/><stop offset="1" stop-color="#ffad6b"/><stop offset="1" stop-color="#ffad6b"/></linearGradient><path fill="url(#QBv7UjRFY15woNA8ud7xbi)" d="M14,53c-1.104,0-2,0.896-2,2c0,1.104,0.896,2,2,2c1.105,0,2-0.896,2-2 C16,53.896,15.104,53,14,53"/><linearGradient id="QBv7UjRFY15woNA8ud7xbj" x1="-78.857" x2="-77.857" y1="157.714" y2="157.714" gradientTransform="matrix(0 -14 -14 0 2245.5 -1047)" gradientUnits="userSpaceOnUse" spreadMethod="reflect"><stop offset="0" stop-color="#ffac67"/><stop offset="1" stop-color="#ffad6b"/><stop offset="1" stop-color="#ffad6b"/></linearGradient><path fill="url(#QBv7UjRFY15woNA8ud7xbj)" d="M37.5,44c-0.828,0-1.5,0.672-1.5,1.5v2c0,0.749-0.55,1.371-1.268,1.482 C34.82,48.994,34.909,49,35,49h3c1.105,0,2,0.896,2,2c0,1.105-0.895,2-2,2H20c-1.105,0-2,0.896-2,2c0,1.104,0.895,2,2,2h37v-4v-4 c0,1.105-0.895,2-2,2s-2-0.895-2-2v-2.5c0-0.828-0.672-1.5-1.5-1.5l0,0c-0.828,0-1.5,0.672-1.5,1.5V47v3c0,1.105-0.896,2-2,2 c-1.105,0-2-0.895-2-2v-2.5c0-0.828-0.672-1.5-1.5-1.5c-0.828,0-1.5,0.672-1.5,1.5V48c0,1.105-0.895,2-2,2s-2-0.895-2-2v-2.5 C39,44.672,38.328,44,37.5,44"/><linearGradient id="QBv7UjRFY15woNA8ud7xbk" x1="-76" x2="-75" y1="160" y2="160" gradientTransform="matrix(0 -12 -12 0 1951.5 -859)" gradientUnits="userSpaceOnUse" spreadMethod="reflect"><stop offset="0" stop-color="#ff5c4c"/><stop offset=".221" stop-color="#fd5d65"/><stop offset=".527" stop-color="#fc5e82"/><stop offset=".793" stop-color="#fa5f93"/><stop offset=".989" stop-color="#fa5f99"/><stop offset="1" stop-color="#fa5f99"/></linearGradient><path fill="url(#QBv7UjRFY15woNA8ud7xbk)" d="M52,41h-5H37h-5h-1H16h-5c-2.762,0-5,2.238-5,5v5c0,1.105,0.895,2,2,2c1.104,0,2-0.895,2-2 v-3.5c0-0.828,0.672-1.5,1.5-1.5c0.828,0,1.5,0.672,1.5,1.5c0,0.828,0.672,1.5,1.5,1.5c0.828,0,1.5-0.672,1.5-1.5v-2 c0-0.828,0.672-1.5,1.5-1.5s1.5,0.672,1.5,1.5V49c0,1.105,0.895,2,2,2c1.104,0,2-0.895,2-2v-1.5c0-0.828,0.672-1.5,1.5-1.5 c0.828,0,1.5,0.672,1.5,1.5V49c0,1.105,0.896,2,2,2c1.105,0,2-0.895,2-2v-1.5c0-0.828,0.672-1.5,1.5-1.5s1.5,0.672,1.5,1.5 c0,0.828,0.672,1.5,1.5,1.5c0.079,0,0.156-0.006,0.232-0.018C35.45,48.871,36,48.249,36,47.5v-2c0-0.828,0.672-1.5,1.5-1.5 c0.828,0,1.5,0.672,1.5,1.5V48c0,1.105,0.895,2,2,2s2-0.895,2-2v-0.5c0-0.828,0.672-1.5,1.5-1.5c0.828,0,1.5,0.672,1.5,1.5V50 c0,1.105,0.896,2,2,2c1.104,0,2-0.895,2-2v-3v-0.5c0-0.828,0.672-1.5,1.5-1.5l0,0l0,0c0.828,0,1.5,0.672,1.5,1.5V49 c0,1.105,0.895,2,2,2s2-0.895,2-2l0,0v-3l0,0c0-0.343-0.035-0.677-0.101-1c-0.444-2.184-2.31-3.851-4.589-3.991c0,0,0,0-0.001,0 c-0.004,0-0.008,0-0.012-0.001c-0.001,0-0.002,0-0.003,0c-0.004,0-0.007,0-0.011-0.001c-0.001,0-0.003,0-0.004,0 c-0.003,0-0.007,0-0.01-0.001c-0.002,0-0.003,0-0.005,0c-0.003,0-0.007,0-0.01-0.001c-0.001,0-0.003,0-0.005,0 c-0.004,0-0.007,0-0.01,0c0,0-0.001,0-0.001,0c-0.008,0-0.016-0.001-0.023-0.001c-0.001,0-0.003,0-0.004,0c-0.003,0-0.006,0-0.009,0 c-0.002,0-0.004,0-0.006,0c-0.003,0-0.005,0-0.008,0c-0.002,0-0.005,0-0.007,0c-0.003,0-0.005,0-0.008,0c-0.002,0-0.005,0-0.007,0 c-0.003,0-0.005,0-0.008,0c-0.003,0-0.005,0-0.008,0c-0.002,0-0.005,0-0.007,0c-0.003,0-0.006,0-0.009,0c-0.002,0-0.003,0-0.005,0 c-0.004,0-0.008,0-0.012,0c-0.003,0-0.005,0-0.008,0c-0.004,0-0.007,0-0.011,0c-0.002,0-0.004,0-0.005,0c-0.003,0-0.007,0-0.01,0 c-0.002,0-0.004,0-0.006,0c-0.003,0-0.006,0-0.009,0c-0.002,0-0.004,0-0.006,0c-0.003,0-0.006,0-0.009,0c-0.002,0-0.004,0-0.007,0 c-0.003,0-0.006,0-0.009,0c-0.002,0-0.004,0-0.006,0c-0.003,0-0.006,0-0.01,0c-0.002,0-0.004,0-0.006,0C52.01,41,52.005,41,52,41"/></svg>