<svg xmlns="http://www.w3.org/2000/svg" xmlns:xlink="http://www.w3.org/1999/xlink" viewBox="0 0 100 100"><path fill="#f9b621" d="M43.5,50V33c0-1.657,1.343-3,3-3h8c1.657,0,3,1.343,3,3v17H43.5z"/><path fill="#f3cbca" d="M17.5,62.5h66V80h-66V62.5z"/><path fill="#f9e65c" d="M50.5,30c-3.866,0-7-3.147-7-7.029c0-2.992,4.52-9.318,7-12.471c2.48,3.153,7,9.479,7,12.471 C57.5,26.853,54.366,30,50.5,30z"/><path fill="#1f212b" d="M57.5,51h-14c-0.552,0-1-0.448-1-1V33c0-2.206,1.794-4,4-4h8c2.206,0,4,1.794,4,4v17 C58.5,50.552,58.052,51,57.5,51z M44.5,49h12V33c0-1.103-0.897-2-2-2h-8c-1.103,0-2,0.897-2,2V49z"/><path fill="#1f212b" d="M83.5,81h-66c-0.552,0-1-0.448-1-1V59.92c0-0.552,0.448-1,1-1h66c0.552,0,1,0.448,1,1V80 C84.5,80.552,84.052,81,83.5,81z M18.5,79h64V60.92h-64V79z"/><path fill="#1f212b" d="M50.5,31c-4.411,0-8-3.602-8-8.029c0-3.536,5.045-10.332,7.214-13.089 c0.38-0.482,1.192-0.482,1.572,0c2.169,2.757,7.214,9.553,7.214,13.089C58.5,27.398,54.911,31,50.5,31z M50.5,12.136 c-3.101,4.086-6,8.78-6,10.835c0,3.324,2.691,6.029,6,6.029s6-2.705,6-6.029C56.5,20.916,53.601,16.222,50.5,12.136z"/><path fill="#ee4267" d="M53.5,26.333c0,1.749-1.343,3.167-3,3.167s-3-1.418-3-3.167c0-1.752,3-6.333,3-6.333 S53.5,24.581,53.5,26.333z"/><path fill="#1f212b" d="M50.5,30c-1.93,0-3.5-1.645-3.5-3.667c0-1.848,2.766-6.126,3.082-6.607 c0.186-0.282,0.651-0.282,0.837,0C51.234,20.208,54,24.485,54,26.333C54,28.355,52.43,30,50.5,30z M50.5,20.933 c-0.954,1.54-2.5,4.275-2.5,5.401C48,27.804,49.122,29,50.5,29s2.5-1.196,2.5-2.667C53,25.208,51.454,22.473,50.5,20.933z"/><path fill="#78a2d2" d="M13.499,80c0,0,3.4,8,17,8c6.8,0,26.4,0,40,0s17-8,17-8H13.499z"/><path fill="#f497b0" d="M73.5,68.5c-5.5,0-7.119-1.994-9.26-4.919l-0.76-1.294l-0.9,1.195c-2,2.649-6.84,4.441-12,4.441 s-10-1.792-12-4.441l-0.9-1.195L37.5,63.5c-1.5,3-6.317,5.276-10,5c-5.52,0-10-3.704-10-7.547v-1.991c0-4.949,4.029-8.961,9-8.961 h48c4.971,0,9,4.012,9,8.961v1.991C83.5,64.517,80,68.5,73.5,68.5z"/><path fill="#1f212b" d="M70.5,89h-40c-14.1,0-17.771-8.257-17.92-8.609c-0.131-0.309-0.099-0.663,0.086-0.943 S13.164,79,13.5,79h74c0.335,0,0.649,0.168,0.834,0.448s0.218,0.634,0.086,0.943C88.271,80.743,84.6,89,70.5,89z M15.285,81 c1.628,2.148,5.854,6,15.215,6h40c9.36,0,13.586-3.852,15.215-6H15.285z"/><path fill="#1f212b" d="M83.5,61.953c-0.552,0-1-0.448-1-1v-1.991c0-4.39-3.589-7.961-8-7.961h-48c-4.411,0-8,3.571-8,7.961 v1.991c0,0.552-0.448,1-1,1s-1-0.448-1-1v-1.991c0-5.493,4.486-9.961,10-9.961h48c5.514,0,10,4.469,10,9.961v1.991 C84.5,61.505,84.052,61.953,83.5,61.953z"/><path fill="#1f212b" d="M28.266,68.529c-0.268,0-0.535-0.01-0.803-0.03c-0.001,0-0.002,0-0.003,0 c-5.662,0-9.959-3.224-9.959-7.499c0-0.276,0.224-0.5,0.5-0.5s0.5,0.224,0.5,0.5c0,3.706,3.869,6.5,9,6.5 c2.386,0.178,4.755-0.507,6.706-1.925c0.224-0.162,0.536-0.113,0.698,0.11c0.163,0.223,0.113,0.536-0.11,0.698 C32.873,67.781,30.582,68.529,28.266,68.529z"/><path fill="#1f212b" d="M50.5,68.5c-5.237,0-10.188-1.905-12.319-4.74l-0.449-0.598l-0.38,0.65 c-0.141,0.198-0.259,0.351-0.38,0.501c-0.173,0.215-0.487,0.249-0.703,0.075c-0.215-0.173-0.249-0.488-0.075-0.703 c0.11-0.137,0.218-0.277,0.322-0.42l0.733-1.259c0.084-0.145,0.236-0.237,0.403-0.247c0.159-0.01,0.328,0.065,0.428,0.199l0.9,1.2 c1.952,2.596,6.581,4.34,11.52,4.34c4.956,0,9.759-1.785,11.681-4.34l0.899-1.2c0.1-0.134,0.263-0.209,0.428-0.199 c0.167,0.009,0.319,0.102,0.403,0.247l0.76,1.3c1.633,2.235,4.156,3.754,6.895,4.123c0.273,0.037,0.465,0.289,0.429,0.562 c-0.038,0.273-0.286,0.462-0.562,0.429c-3.008-0.406-5.777-2.07-7.597-4.567l-0.407-0.693L62.98,63.76 C60.882,66.551,55.75,68.5,50.5,68.5z"/><path fill="#1f212b" d="M74.5,68.465c-0.26,0-0.479-0.201-0.498-0.465c-0.02-0.275,0.188-0.514,0.463-0.534 c1.198-0.085,2.328-0.328,3.356-0.721c0.26-0.099,0.547,0.03,0.646,0.288c0.099,0.258-0.03,0.547-0.288,0.646 c-1.121,0.429-2.347,0.692-3.644,0.784C74.523,68.464,74.511,68.465,74.5,68.465z"/><path fill="#1f212b" d="M80.5,66.308c-0.147,0-0.293-0.064-0.392-0.188c-0.172-0.216-0.136-0.531,0.08-0.703 C81.679,64.23,82.5,62.661,82.5,61c0-0.276,0.224-0.5,0.5-0.5s0.5,0.224,0.5,0.5c0,1.972-0.955,3.818-2.688,5.199 C80.719,66.272,80.609,66.308,80.5,66.308z"/></svg>