<svg xmlns="http://www.w3.org/2000/svg" xmlns:xlink="http://www.w3.org/1999/xlink" width="512" height="512" viewBox="0 0 512 512"><path d="M416.5 375.1c-7.1 0-6.2 11 .8 11C424.5 386.1 423.6 375.1 416.5 375.1zM429.6 399.5c-1.2-1-2.5-1.4-4.1-1.4h-1c-1.4 0-2.8.9-3.7 1.9-1 1.1-1.5 2.6-1.4 4.1.1 1.4.8 2.8 1.9 3.7 1.2 1 2.5 1.4 4.1 1.4h1c1.4 0 2.8-.9 3.7-1.9 1-1.1 1.5-2.6 1.4-4.1C431.3 401.8 430.7 400.4 429.6 399.5z"/><path fill="#EF4754" d="M300.9,126c-9.1-0.6-15.3,5.6-20.9,11.9c-3.2,3.5-6.4,7.2-9.9,10.4c2.1,2.5,4.3,5,6.5,7.2c0.8,0.9,1.3,1.8,1.5,2.8c0.2-1.1,0.3-2.2,0.3-3.2c0.1-7,11-8,11-0.8v3c0,1-0.2,1.8-0.6,2.5c-2.3,12.2-11.1,22.1-25,20.3c-7-0.9-4.9-11.7,2.1-10.8c4.6,0.6,8-1.7,10-5.2c-1.8,1.6-4.5,1.9-6.7-0.3c-2.9-2.9-5.7-6-8.4-9.3c-0.6,0.3-1.2,0.5-1.8,0.8c-4.7,1.8-9.7,2.5-14.6,3.6c-3.7,0.8-8.8,1.7-11.6,4.6c-5,5.2-5.1,17.3,1.7,20.8c1.2-0.1,2.4,0.1,3.4,0.9c0.1,0,0.2,0,0.4,0c4.1,0.2,6.1,4.1,5.6,7.1c14.6,14.8,39.7,15.4,58.5,8.6c14-5.1,28.2-15.3,31.8-30.6C339.4,148.9,322.9,127.4,300.9,126z"/><path fill="#EF4823" d="M416.4,353.4c-8.6,3.7-17.6,6.3-26.8,7.9c-20,3.5-41,3.9-61.2,1.1c-11.1-1.5-22.2-3.6-33.4-4.5c-10.3-0.8-20.4-1.8-30.1-5.8c-5.4,3.8-11.8,5.9-18.7,5c-7.2-1-13.2-4.6-17.5-9.7c-0.6,0.4-1.4,0.7-2.3,0.8c-8.6,1-17.2-2.7-25.7-3.7c-8.9-1.1-17.5-2.6-26-5.3c-15.3-4.8-30.5-10.2-44.5-18.1c-2.6,9.5-9,19-19.5,19.8c-9.9,0.7-21.5-6.7-24-16.8c-1.5-6.1-1-12.5-0.8-18.8c0.1-1.5,0.1-3,0.2-4.5c-0.2-0.1-0.3-0.1-0.5-0.2c-8.4-3.7-17.3-6.3-25.5-10.5c-3.2-1.7-6.8-3.7-9.9-6.1c-0.3,0.1-0.6,0.1-1,0.2c0,0.2-0.1,0.5-0.1,0.7c-0.1,1.6,0.1,3.3,0.2,4.9c0.5,4.3,1.1,6.8,3.1,11c6.1,12.5,17.5,22.2,28.2,30.9c20.8,16.9,47.9,24,73.8,28.9c28.5,5.4,56.8,8.8,85.9,9.4c15.9,0.3,31.8,0.3,47.7,1c15.5,0.7,30.9,2.4,46.4,3.4c15.4,1,32,2,47.2-1c8.2-1.6,16.4-4.4,24-7.8c10.6-4.6,25.5-12.3,31-23.7C430.7,346.7,423.3,350.4,416.4,353.4z"/><path fill="#C56528" d="M415.2,443.2c-9.9,4.5-21.4,5.6-32.2,5.7c-13.2,0.1-26.4-1.3-39.4-3.2c-13.1-1.9-26.2-4.2-39.4-5.2c-13-1.1-26.1,0.1-39.2-0.6c-15.6-0.9-31.2-4.1-46.5-6.9c-14.7-2.7-29.4-4.8-44.3-6.7c-24.4-3-49.2-5.7-72.6-13.5c-17.5-5.8-37.8-14.4-48.9-29.9c-0.1,2.2-0.2,4.4-0.2,6.6c-0.2,10.6-0.3,22.1,4.2,32c10.5,23.2,40.3,24.6,61.9,28.9c16.1,3.2,32.1,6.9,48.3,9.5c15.9,2.6,32,4.2,48.1,5.1c32.7,1.9,65.5,1.7,98.3,2.6c16.5,0.5,33,1.1,49.5,1.4c12.5,0.2,25,0.7,36.9-3.5c17-5.9,29.3-18.3,32.3-35C427.5,435.7,422,440.1,415.2,443.2z"/><path fill="#FCBF95" d="M245.6,100.5c0.3,1.6,0.7,3.1,1.1,4.6c3.1,11.9,9.2,23.9,16.7,34.5c0.1-0.1,0.2-0.2,0.4-0.3c4.1-4,7.6-8.4,11.6-12.5c1.3-1.3,2.6-2.5,4-3.6C277.5,108.6,259.1,102.2,245.6,100.5z"/><path fill="#D6E5E5" d="M437,359c-11.4,10.5-28,17.6-40.5,21.5c-17.3,5.4-35.4,5.8-53.4,5c-16.1-0.7-32.1-2.3-48.2-3.3c2.5,3.2,1.5,8.9-3.6,8.9c-5.4,0-7.1-6.3-4.6-9.4c-3.8-0.2-7.5-0.4-11.3-0.4c-22.5-0.5-45.1-0.3-67.5-2.1c0.3,0.6,0.5,1.3,0.5,2v2c0,1.5-0.3,2.9-1.4,4.1c-0.9,1.1-2.3,1.7-3.7,1.9c-1.5,0.1-2.9-0.4-4.1-1.4c-1-0.9-1.9-2.3-1.9-3.7v-2c0-1.4,0.3-2.6,1-3.6c-5.3-0.6-10.7-1.2-16-2.1c-25.5-4.1-51.4-8-75.6-17.5c-11.6-4.5-22.9-10.3-32.5-18.2c-0.8-0.6-1.6-1.3-2.4-2c-0.5,1.9-2.1,3.4-4.7,3.4c-6,0-7.5-8-3.5-10.3c-6.2-5.6-12.1-11.6-16.7-18.4c-2.2,6.2,1.3,14.9,2.8,20.6c2.1,8.2,2.9,16.7,4.6,25c0.1,0.5,0.2,1,0.3,1.5c0.5-0.2,1-0.4,1.6-0.4c1.5-0.1,2.9,0.4,4.1,1.4c1,0.9,1.9,2.3,1.9,3.7v1c0,1.5-0.3,2.9-1.4,4.1c-0.6,0.7-1.5,1.3-2.4,1.6c1.9,4,4.5,7.6,8,10.5c6.6,5.5,14,10,21.8,13.6c33.2,15.2,70.2,16.5,105.8,21.6c0.8,0.1,1.7,0.3,2.5,0.4c-0.2-0.1-0.3-0.2-0.5-0.3c-1.3-1.1-2-2.9-2-4.6c0-1.5,0.3-2.9,1.4-4.1c0.9-1.1,2.3-1.7,3.7-1.9c1.5-0.1,2.9,0.4,4.1,1.4c0.3,0.2,0.5,0.5,0.7,0.8c0.1,0.1,0.2,0.1,0.3,0.2c1.1,0.9,1.7,2.3,1.9,3.7c0.1,1.5-0.4,2.9-1.4,4.1c-0.6,0.7-1.5,1.3-2.5,1.6c12.7,2.1,25.3,4.7,38,6.7c-0.5-0.2-0.9-0.5-1.3-0.8c-1-0.9-1.9-2.3-1.9-3.7v-1c0-1.5,0.3-2.9,1.4-4.1c0.9-1.1,2.3-1.7,3.7-1.9c1.5-0.1,2.9,0.4,4.1,1.4c1,0.9,1.9,2.3,1.9,3.7v1c0,1.5-0.3,2.9-1.4,4.1c-0.9,1-2.1,1.6-3.4,1.8c7.4,1.2,14.7,2.5,22.3,2.9c0.7,0,1.3,0,2,0.1c-1-0.2-1.9-0.5-2.7-1.2c-1.1-0.9-1.7-2.3-1.9-3.7c-0.1-1.5,0.4-2.9,1.4-4.1c0.2-0.3,0.5-0.5,0.8-0.7c0.1-0.1,0.1-0.2,0.2-0.3c0.9-1.1,2.3-1.7,3.7-1.9c1.5-0.1,2.9,0.4,4.1,1.4c1,0.9,1.9,2.3,1.9,3.7c0,0.7,0,1.4-0.1,2.1c-0.2,1.1-0.7,2-1.4,2.8c-1,1.2-2.4,1.8-3.9,1.9c6.1,0.2,12.1,0.2,18.2,0.1c7.9-0.1,15.8,0.5,23.6,1.3c-0.2-0.5-0.3-0.9-0.4-1.5c-0.1-1.5,0.4-2.9,1.4-4.1c0.9-1.1,2.3-1.7,3.7-1.9c1.4-0.1,3,0.3,4.1,1.4c0.5,0.5,1,1.1,1.5,1.7c0.4,0.5,0.6,1.1,0.9,1.6c0.3,0.7,0.4,1.6,0.4,2.4c0,0.6-0.1,1.2-0.2,1.7c18.4,2.5,36.7,5.8,55.3,6c11.1,0.1,24.1-0.1,34.1-5.7c-0.1-0.4-0.2-0.8-0.2-1.2c-0.1-1.5,0.4-2.9,1.4-4.1c0.9-1,2.3-1.9,3.7-1.9h1c1,0,1.9,0.1,2.7,0.5c4.1-4.2,7.4-9.3,9.7-14.8C437.7,394.6,438.6,376.4,437,359z M73.4,361.1c-7.1,0-7.9-11-0.8-11C79.6,350.1,80.5,361.1,73.4,361.1z M88.1,381.2l-1,1c-1,1-2.2,1.7-3.7,1.9c-1.5,0.1-2.9-0.4-4.1-1.4c-2.1-1.9-2.6-5.6-0.5-7.8l1-1c1-1,2.2-1.7,3.7-1.9c1.5-0.1,2.9,0.4,4.1,1.4C89.7,375.4,90.2,379.1,88.1,381.2z M121.5,367.1c7.1,0,7.9,11,0.8,11C115.3,378.1,114.5,367.1,121.5,367.1z M129.5,394.9c0,7.1-11,7.9-11,0.8V395c0-7.1,11-7.9,11-0.8V394.9z M161.4,386.1c-7.1,0-7.9-11-0.8-11C167.6,375.1,168.5,386.1,161.4,386.1z M183.4,403.1c-7.1,0-7.9-11-0.8-11C189.6,392.1,190.5,403.1,183.4,403.1z M247.1,398.2c-0.9,1-2.3,1.9-3.7,1.9c-0.7,0-1.4,0-2.1-0.1c-1.1-0.2-2-0.7-2.8-1.4c-1.3-1.1-2-2.9-2-4.6c0-1.5,0.3-2.9,1.4-4.1c0.9-1.1,2.3-1.7,3.7-1.9c1.5-0.1,2.9,0.4,4.1,1.4c0.3,0.2,0.5,0.5,0.7,0.8c0.1,0.1,0.2,0.1,0.3,0.2c1.1,0.9,1.7,2.3,1.9,3.7C248.6,395.6,248.1,397.1,247.1,398.2z M320.1,403.2c-0.9,1.1-2.3,1.7-3.7,1.9c-1.5,0.1-2.9-0.4-4.1-1.4c-0.3-0.2-0.5-0.5-0.7-0.8c-0.1-0.1-0.2-0.1-0.3-0.2c-1.1-0.9-1.7-2.3-1.9-3.7c-0.1-1.5,0.4-2.9,1.4-4.1c0.9-1,2.3-1.9,3.7-1.9c0.7,0,1.4,0,2.1,0.1c1.1,0.2,2,0.7,2.8,1.4c1.3,1.1,2,2.9,2,4.6C321.5,400.7,321.1,402.1,320.1,403.2z M335.5,404c-0.1-1.5,0.4-2.9,1.4-4.1c0.9-1,2.3-1.9,3.7-1.9h1c1.5,0,2.9,0.3,4.1,1.4c1.1,0.9,1.7,2.3,1.9,3.7c0.1,1.5-0.4,2.9-1.4,4.1c-0.9,1-2.3,1.9-3.7,1.9h-1c-1.5,0-2.9-0.3-4.1-1.4C336.3,406.8,335.6,405.4,335.5,404z M350.5,427.2c0,1.5-0.3,2.9-1.4,4.1c-0.9,1.1-2.3,1.7-3.7,1.9c-1.5,0.1-2.9-0.4-4.1-1.4c-1-0.9-1.9-2.3-1.9-3.7v-1c0-1.5,0.3-2.9,1.4-4.1c0.9-1.1,2.3-1.7,3.7-1.9c1.5-0.1,2.9,0.4,4.1,1.4c1,0.9,1.9,2.3,1.9,3.7V427.2z M361.1,395.2l-1,1c-1,1-2.2,1.7-3.7,1.9c-1.5,0.1-2.9-0.4-4.1-1.4c-2.1-1.9-2.6-5.6-0.5-7.8l1-1c1-1,2.2-1.7,3.7-1.9c1.5-0.1,2.9,0.4,4.1,1.4C362.7,389.4,363.2,393.1,361.1,395.2z M379.3,414.7c-1-0.9-1.9-2.3-1.9-3.7v-1c0-1.5,0.3-2.9,1.4-4.1c0.9-1.1,2.3-1.7,3.7-1.9c1.5-0.1,2.9,0.4,4.1,1.4c1,0.9,1.9,2.3,1.9,3.7v1c0,1.5-0.3,2.9-1.4,4.1c-0.9,1.1-2.3,1.7-3.7,1.9C381.9,416.2,380.4,415.7,379.3,414.7z M387.4,436.1c-7.1,0-7.9-11-0.8-11C393.6,425.1,394.5,436.1,387.4,436.1z M403.4,394.1c-7.1,0-7.9-11-0.8-11C409.6,383.1,410.5,394.1,403.4,394.1z M417.4,386.1c-7.1,0-7.9-11-0.8-11C423.6,375.1,424.5,386.1,417.4,386.1z M430.1,407.2c-0.9,1-2.3,1.9-3.7,1.9h-1c-1.5,0-2.9-0.3-4.1-1.4c-1.1-0.9-1.7-2.3-1.9-3.7c-0.1-1.5,0.4-2.9,1.4-4.1c0.9-1,2.3-1.9,3.7-1.9h1c1.5,0,2.9,0.3,4.1,1.4c1.1,0.9,1.7,2.3,1.9,3.7C431.6,404.6,431.1,406.1,430.1,407.2z"/><path fill="#FCBF95" d="M430.3,240.7c-9.1-11.1-19.1-21.4-29.6-31.2c-17.6-16.4-36.3-31.7-54.2-47.7c0,1,0,1.9-0.1,2.9c-1,16.6-11.5,31-25.4,39.5c-26.8,16.4-69.5,17.9-89.4-9.9c-10-4.4-15.6-16.1-12.5-27.5c4-14.3,16-16.9,28.8-19.8c2.1-0.5,4.2-1,6.1-1.7c-9.5-13.6-16.8-29.2-19.5-45.1c0-0.1,0-0.3-0.1-0.4c-9-0.1-17.8,1-26.4,4.2c-13.2,4.9-25.5,12.1-37.9,18.6c-24.3,12.6-49.4,24.1-73.2,37.7c-10.6,6.1-21.2,12.8-29.7,21.6c-3.8,3.9-8.6,8.8-9.4,14.4c-1,6.7,4.4,8.5,8.6,12.1c72.9,21.9,146.9,40.1,221,57.7c15.3,3.6,30.9,6.8,45.9,11.6c14.1,4.5,27.9,9.9,42.3,13.5c13.5,3.4,26.7,5,40.5,2.7c10-1.7,26.3-5.6,29-17.4C448,263.2,438.1,250.3,430.3,240.7z"/><path fill="#C56528" d="M222.7,336.5c-3.2-9.6-3.7-19.7-6.9-29.3c-1.1-3.2-2.6-9.2-6.1-10.6c-3.3-1.3-6.8,3.2-8.5,5.3c-5.6,6.6-12.1,16.4-21.9,16.1c-10.1-0.3-15.6-9-18.3-17.7c-2.3-7.3-5.1-22-16-14.9c-4.9,3.2-8.6,7.7-10.8,13.1c-1.5,3.5-2,7.3-2.3,11c0.2,0.1,0.3,0.2,0.5,0.3c14.3,8.4,30.1,14.3,45.9,19.1c8,2.4,16.2,3.7,24.4,4.8c6.6,0.8,13.6,3.6,20.3,3.7C222.9,337,222.8,336.7,222.7,336.5z"/><path fill="#D6E5E5" d="M425.4,303.1c-12.7,2.9-25.3,3.8-38.2,1.7c-14.5-2.4-28.4-7.1-42.2-11.8c-30.1-10.3-61.3-16.5-92.2-23.9c-63.3-15.2-126.5-31.3-188.9-50c-0.7-0.2-1.4-0.6-1.9-1c-0.9-0.1-1.8-0.6-2.7-1.3c-2.5-2.2-5.8-3.4-7.9-6.1c-0.3-0.4-0.6-0.8-0.9-1.2c-1.3,5.5-2.3,11.1-2.9,16.7c0,0.4-0.1,2.5-0.1,0.7c0,0.9-0.1,1.7-0.2,2.6c-0.2,2-0.5,4-0.7,5.9c-0.5,4.7-1,9.4-0.7,14.1c0.2,3,0.3,9.5,3.5,11.2c4.4,2.3,8.5-1.2,12-3.6c6.8-4.5,15.7-8.8,23.6-4.2c13.3,7.7,12.5,27.5,12.1,40.8c-0.2,7.4-0.9,14.9-0.5,22.3c0.2,4,0.1,5.2,2.5,8.3c2.5,3.2,7.1,6.9,11.5,5.4c12.3-4.3,9.3-22.1,12.2-32c2.9-10,11.5-21.7,22.1-24.3c11.3-2.8,19.6,3,23.4,13.6c1.6,4.5,3.8,20.6,11.1,20c4.1-0.3,7.4-4.9,9.8-7.9c2.9-3.5,5.6-7.2,9.2-10c8.1-6.2,18.8-4,23.7,4.9c4.8,8.7,6.6,18.3,8.3,27.9c1.7,9.7,4.8,22.6,16.4,24.2c12.6,1.7,20.2-10.7,24.3-20.8c3.9-9.5,7.5-19.8,17.6-24.2c10.5-4.5,22.9-4.5,32.6,1.9c9.9,6.6,12.6,17.3,19.4,26.4c6.4,8.7,15.9,7,24.4,1.7c10-6.2,19.3-14.7,31.8-14.2c10.9,0.5,22.7,6.6,32.4-1.5c4.6-3.9,7.6-8.8,9.9-14.1c0.1-1.1,0.5-2.1,1.2-2.9c0.2-0.6,0.5-1.2,0.7-1.8C436.5,299.6,431.1,301.7,425.4,303.1z"/><path fill="#C56528" d="M434.5,325.4c-5.4,3.6-11.8,5.6-18.4,5.3c-3.2-0.2-6.4-0.4-9.5-1c-3.2-0.6-6.8-1.9-10.1-1.8c-12.4,0.3-20.6,11.7-31.7,15.9c-9.3,3.5-20.2,4.8-28.1-2.5c-3.6-3.3-6.4-7.4-8.7-11.7c-2.6-4.8-4.6-10.2-8.6-14.1c-3.9-3.8-9-6.9-14.6-6.7c-4.7,0.1-11.4,0.9-14.9,4.5c-7.3,7.5-8.8,19.3-14.5,28c-0.5,0.8-1.1,1.5-1.6,2.3c7.6,2.3,15.5,2.8,23.4,3.5c9.3,0.8,18.5,2.3,27.7,3.7c18.1,2.7,36.3,3.1,54.5,0.9c16.4-2,32.5-6.6,46.4-15.8c5.1-3.4,9.1-7.8,12-13C436.7,323.8,435.6,324.6,434.5,325.4z"/><path d="M455.3,279.3c0.8-2.6,1.3-5.4,1.3-8.4c0.4-17.7-14.9-34.2-25.8-46.5c-26.5-30-59.1-53.8-88.2-81c-0.1-0.1-0.3-0.2-0.5-0.4c-6.3-13.3-18.8-23.4-33.6-27c-6.9-1.7-13.3-1.2-19.1,1.1c-4.5-15.8-23.2-24-38.5-27c-2.3-0.5-4.7-0.8-7.1-1.1c-0.6-5.4-0.7-10.9-0.4-15.9c0.2-3.2,0.9-6.3,1.6-9.4c0.3-1.3,0.7-2.7,1.2-4c0.6-1.4,2.3-2.8,0.5-2c6.6-2.6,3-13-3.6-10.4c-6.9,2.7-8.6,12.4-9.9,18.8c-1.4,7.2-1.2,14.8-0.4,22.3c-5.7,0-11.3,0.6-16.7,1.7c-13.9,2.9-26.2,9.7-38.7,16.2c-26.9,14-54.3,27.2-81,41.6c-11.7,6.3-23.1,13.4-33,22.3c-3.3,3-6.9,6.4-9.8,10.3c-10.5,0.3-14.3,28.2-15.4,34.4c-1.2,6.7-1.7,12.2-2.4,18.3c-1.1,9.5-2.3,20.2,1.7,29.2c1.3,2.9,3.1,5.1,5.2,6.7c-0.2,0.6-0.2,1.2-0.2,1.8c0.1,1,0.2,1.9,0.5,2.9c-3.4,2.4-4.9,7.9-4.8,12.9c0,5.5,1.2,10.7,3.3,15.7c-0.2,0.2-0.4,0.3-0.5,0.5c-8.1,9-4.7,21.6-1.9,32c1.5,5.7,2.5,11.6,3.4,17.4c-0.7,0.9-1,2.1-0.9,3.6c2.6,23.2-4.7,48.1,5.3,70.3c11.4,25.3,39.8,28.8,63.9,33.6c32.1,6.4,63.7,13.1,96.4,15.5c32.3,2.3,64.8,2.2,97.2,2.9c19.1,0.4,38.3,1.2,57.4,1.6c14.7,0.3,28.9,0.4,42.9-4.4c24.9-8.6,40.9-30.8,39-57.3c-0.1-1.7-0.9-3-1.9-3.8c7.8-19,8.1-42.5,5.9-61.2c-0.2-1.8-1.1-3.1-2.3-3.9c3.7-6.2,5.6-13.2,4.3-21.1c-0.1-0.8-0.4-1.5-0.7-2.1c4.2-8,6.2-17.3,2.4-24.9c1.9-5,3.6-10.2,5.8-15.1C458,283.5,457.1,280.9,455.3,279.3z M300.9,126c21.9,1.4,38.5,22.9,33.5,44.2c-3.6,15.3-17.8,25.5-31.8,30.6c-18.8,6.8-43.8,6.2-58.5-8.6c0.5-3.1-1.5-7-5.6-7.1c-0.1,0-0.2,0-0.4,0c-1-0.8-2.3-1.1-3.4-0.9c-6.8-3.5-6.7-15.6-1.7-20.8c2.8-2.9,7.9-3.7,11.6-4.6c4.9-1.1,9.9-1.8,14.6-3.6c0.6-0.2,1.2-0.5,1.8-0.8c2.7,3.3,5.5,6.4,8.4,9.3c2.2,2.2,4.9,1.9,6.7,0.3c-2.1,3.4-5.4,5.8-10,5.2c-7-0.9-9.1,9.9-2.1,10.8c13.8,1.9,22.7-8.1,25-20.3c0.4-0.7,0.6-1.6,0.6-2.5v-3c0-7.1-10.8-6.2-11,0.8c0,1.1-0.1,2.2-0.3,3.2c-0.2-1-0.7-1.9-1.5-2.8c-2.2-2.3-4.4-4.7-6.5-7.2c3.6-3.2,6.8-6.8,9.9-10.4C285.6,131.6,291.9,125.4,300.9,126z M279.3,123.1c-1.4,1.1-2.7,2.3-4,3.6c-4,4-7.5,8.5-11.6,12.5c-0.1,0.1-0.2,0.2-0.4,0.3c-7.5-10.6-13.5-22.6-16.7-34.5c-0.4-1.5-0.7-3-1.1-4.6C259.1,102.2,277.5,108.6,279.3,123.1z M399.6,465.5c-12,4.1-24.5,3.7-36.9,3.5c-16.5-0.3-33-0.9-49.5-1.4c-32.8-0.9-65.6-0.7-98.3-2.6c-16.1-1-32.2-2.6-48.1-5.1c-16.2-2.6-32.3-6.3-48.3-9.5c-21.6-4.3-51.5-5.7-61.9-28.9c-4.5-9.9-4.4-21.3-4.2-32c0-2.2,0.1-4.4,0.2-6.6c11.2,15.5,31.4,24.1,48.9,29.9c23.4,7.7,48.2,10.5,72.6,13.5c14.9,1.8,29.6,3.9,44.3,6.7c15.4,2.8,30.9,6.1,46.5,6.9c13,0.7,26.2-0.4,39.2,0.6c13.2,1.1,26.3,3.4,39.4,5.2c13.1,1.9,26.2,3.3,39.4,3.2c10.8-0.1,22.3-1.1,32.2-5.7c6.8-3.1,12.3-7.5,16.7-12.7C429,447.2,416.7,459.6,399.6,465.5z M430.9,410.8c-2.3,5.6-5.6,10.6-9.7,14.8c-0.8-0.4-1.7-0.5-2.7-0.5h-1c-1.4,0-2.8,0.9-3.7,1.9c-1,1.1-1.5,2.6-1.4,4.1c0,0.4,0.1,0.8,0.2,1.2c-10.1,5.6-23,5.7-34.1,5.7c-18.6-0.1-36.9-3.4-55.3-6c0.1-0.6,0.2-1.1,0.2-1.7c0-0.8-0.1-1.7-0.4-2.4c-0.2-0.5-0.5-1.2-0.9-1.6c-0.5-0.6-1-1.1-1.5-1.7c-1-1-2.7-1.5-4.1-1.4c-1.4,0.1-2.8,0.8-3.7,1.9c-1,1.1-1.5,2.6-1.4,4.1c0,0.5,0.2,1,0.4,1.5c-7.8-0.8-15.7-1.4-23.6-1.3c-6.1,0.1-12.1,0-18.2-0.1c1.5-0.2,2.9-0.8,3.9-1.9c0.7-0.8,1.2-1.7,1.4-2.8c0.1-0.7,0.1-1.4,0.1-2.1c0-1.4-0.9-2.8-1.9-3.7c-1.1-1-2.6-1.5-4.1-1.4c-1.4,0.1-2.8,0.8-3.7,1.9c-0.1,0.1-0.1,0.2-0.2,0.3c-0.3,0.2-0.6,0.5-0.8,0.7c-1,1.1-1.5,2.6-1.4,4.1c0.1,1.4,0.8,2.8,1.9,3.7c0.8,0.7,1.7,1.1,2.7,1.2c-0.7,0-1.3,0-2-0.1c-7.5-0.4-14.9-1.7-22.3-2.9c1.3-0.2,2.5-0.8,3.4-1.8c1-1.2,1.4-2.5,1.4-4.1v-1c0-1.4-0.9-2.8-1.9-3.7c-1.1-1-2.6-1.5-4.1-1.4c-1.4,0.1-2.8,0.8-3.7,1.9c-1,1.2-1.4,2.5-1.4,4.1v1c0,1.4,0.9,2.8,1.9,3.7c0.4,0.3,0.8,0.6,1.3,0.8c-12.7-1.9-25.3-4.6-38-6.7c0.9-0.3,1.8-0.9,2.5-1.6c1-1.1,1.5-2.6,1.4-4.1c-0.1-1.4-0.8-2.8-1.9-3.7c-0.1-0.1-0.2-0.1-0.3-0.2c-0.2-0.3-0.5-0.6-0.7-0.8c-1.1-1-2.6-1.5-4.1-1.4c-1.4,0.1-2.8,0.8-3.7,1.9c-1,1.2-1.4,2.5-1.4,4.1c0,1.7,0.6,3.5,2,4.6c0.1,0.1,0.3,0.2,0.5,0.3c-0.8-0.1-1.7-0.3-2.5-0.4c-35.6-5.1-72.6-6.4-105.8-21.6c-7.9-3.6-15.2-8.1-21.8-13.6c-3.5-2.9-6.1-6.6-8-10.5c0.9-0.3,1.7-0.8,2.4-1.6c1-1.2,1.4-2.5,1.4-4.1v-1c0-1.4-0.9-2.8-1.9-3.7c-1.1-1-2.6-1.5-4.1-1.4c-0.5,0-1.1,0.2-1.6,0.4c-0.1-0.5-0.2-1-0.3-1.5c-1.7-8.3-2.5-16.8-4.6-25c-1.5-5.7-5-14.4-2.8-20.6c4.6,6.8,10.5,12.8,16.7,18.4c-4.1,2.3-2.6,10.3,3.5,10.3c2.6,0,4.1-1.5,4.7-3.4c0.8,0.7,1.6,1.3,2.4,2c9.7,7.9,21,13.6,32.5,18.2c24.2,9.4,50.1,13.4,75.6,17.5c5.3,0.9,10.6,1.5,16,2.1c-0.8,1.1-1,2.3-1,3.6v2c0,1.4,0.9,2.8,1.9,3.7c1.1,1,2.6,1.5,4.1,1.4c1.4-0.1,2.8-0.8,3.7-1.9c1-1.2,1.4-2.5,1.4-4.1v-2c0-0.7-0.2-1.3-0.5-2c22.4,1.7,45,1.6,67.5,2.1c3.8,0.1,7.5,0.2,11.3,0.4c-2.5,3.1-0.7,9.4,4.6,9.4c5.1,0,6.1-5.7,3.6-8.9c16.1,1,32.1,2.6,48.2,3.3c18,0.8,36.1,0.4,53.4-5c12.5-3.9,29.1-11,40.5-21.5C438.6,376.4,437.7,394.6,430.9,410.8z M60,290c8.2,4.2,17,6.9,25.5,10.5c0.2,0.1,0.3,0.1,0.5,0.2c-0.1,1.5-0.1,3-0.2,4.5c-0.2,6.2-0.7,12.7,0.8,18.8c2.4,10.1,14.1,17.5,24,16.8c10.6-0.7,16.9-10.3,19.5-19.8c14,7.8,29.2,13.3,44.5,18.1c8.5,2.7,17.2,4.1,26,5.3c8.5,1.1,17.1,4.7,25.7,3.7c0.9-0.1,1.7-0.4,2.3-0.8c4.3,5.2,10.3,8.8,17.5,9.7c6.8,0.9,13.3-1.2,18.7-5c9.6,3.9,19.7,4.9,30.1,5.8c11.2,0.9,22.3,3,33.4,4.5c20.1,2.8,41.1,2.4,61.2-1.1c9.2-1.6,18.2-4.2,26.8-7.9c6.9-3,14.3-6.7,20.2-11.7c-5.5,11.4-20.3,19.1-31,23.7c-7.7,3.3-15.8,6.1-24,7.8c-15.2,3-31.8,2-47.2,1c-15.5-1-30.9-2.7-46.4-3.4c-15.9-0.7-31.8-0.7-47.7-1c-29-0.6-57.4-4-85.9-9.4c-25.9-4.9-52.9-11.9-73.8-28.9c-10.6-8.6-22-18.4-28.2-30.9c-2.1-4.2-2.7-6.8-3.1-11c-0.2-1.6-0.3-3.3-0.2-4.9c0-0.2,0.1-0.5,0.1-0.7c0.3,0,0.7-0.1,1-0.2C53.2,286.3,56.8,288.3,60,290z M53.9,272.1c2.8-0.3,5.6-1.1,8.3-2.5c5.6-2.8,13.3-10.8,18.8-6.1c4.2,3.5,4.6,11.9,5,17.2c0.2,2.8,0.3,5.6,0.3,8.4c-5.7-2.3-11.5-4.3-17.1-6.8C65.3,280.4,56.1,277,53.9,272.1z M131.9,309.4c0.4-3.8,0.8-7.5,2.3-11c2.3-5.4,6-9.9,10.8-13.1c10.9-7.1,13.7,7.5,16,14.9c2.7,8.7,8.2,17.4,18.3,17.7c9.8,0.3,16.3-9.5,21.9-16.1c1.8-2.1,5.2-6.6,8.5-5.3c3.5,1.4,5,7.4,6.1,10.6c3.2,9.6,3.7,19.7,6.9,29.3c0.1,0.3,0.2,0.5,0.3,0.8c-6.7,0-13.7-2.9-20.3-3.7c-8.3-1-16.4-2.3-24.4-4.8c-15.8-4.8-31.6-10.7-45.9-19.1C132.2,309.6,132.1,309.5,131.9,309.4z M425.7,335.9c-13.9,9.2-30,13.8-46.4,15.8c-18.2,2.2-36.4,1.8-54.5-0.9c-9.2-1.4-18.4-2.9-27.7-3.7c-7.9-0.6-15.8-1.2-23.4-3.5c0.6-0.8,1.1-1.5,1.6-2.3c5.7-8.7,7.2-20.5,14.5-28c3.5-3.6,10.2-4.4,14.9-4.5c5.7-0.1,10.7,2.9,14.6,6.7c3.9,3.8,6,9.3,8.6,14.1c2.3,4.3,5.1,8.3,8.7,11.7c7.9,7.3,18.8,6,28.1,2.5c11-4.2,19.2-15.6,31.7-15.9c3.3-0.1,6.9,1.2,10.1,1.8c3.2,0.6,6.3,0.8,9.5,1c6.6,0.3,12.9-1.6,18.4-5.3c1.2-0.8,2.3-1.6,3.3-2.5C434.8,328.1,430.8,332.5,425.7,335.9z M440.6,298.4c-0.7,0.8-1.2,1.8-1.2,2.9c-2.3,5.3-5.3,10.2-9.9,14.1c-9.7,8.2-21.4,2-32.4,1.5c-12.5-0.5-21.9,8-31.8,14.2c-8.5,5.3-18,7-24.4-1.7c-6.7-9.1-9.4-19.8-19.4-26.4c-9.7-6.4-22.1-6.5-32.6-1.9c-10.2,4.4-13.8,14.7-17.6,24.2c-4.1,10-11.7,22.5-24.3,20.8c-11.7-1.6-14.7-14.5-16.4-24.2c-1.7-9.7-3.5-19.3-8.3-27.9c-4.9-8.9-15.6-11.1-23.7-4.9c-3.6,2.8-6.4,6.5-9.2,10c-2.4,2.9-5.6,7.5-9.8,7.9c-7.3,0.6-9.4-15.5-11.1-20c-3.8-10.5-12.1-16.3-23.4-13.6c-10.6,2.6-19.2,14.3-22.1,24.3c-2.9,9.9,0.2,27.7-12.2,32c-4.4,1.5-9-2.2-11.5-5.4c-2.4-3.1-2.4-4.4-2.5-8.3c-0.3-7.4,0.4-14.9,0.5-22.3c0.4-13.3,1.2-33-12.1-40.8c-8-4.7-16.8-0.4-23.6,4.2c-3.6,2.4-7.7,5.9-12,3.6c-3.2-1.7-3.3-8.2-3.5-11.2c-0.3-4.7,0.2-9.4,0.7-14.1c0.2-2,0.5-4,0.7-5.9c0.1-0.9,0.2-1.7,0.2-2.6c0,1.9,0.1-0.3,0.1-0.7c0.6-5.6,1.7-11.2,2.9-16.7c0.3,0.4,0.6,0.8,0.9,1.2c2.1,2.7,5.4,3.9,7.9,6.1c0.9,0.7,1.8,1.2,2.7,1.3c0.5,0.4,1.2,0.7,1.9,1c62.4,18.8,125.6,34.8,188.9,50c30.9,7.4,62.1,13.6,92.2,23.9c13.9,4.7,27.7,9.4,42.2,11.8c12.9,2.1,25.5,1.3,38.2-1.7c5.7-1.3,11.2-3.4,15.9-6.4C441,297.2,440.8,297.8,440.6,298.4z M445,276.3c-2.7,11.8-18.9,15.8-29,17.4c-13.8,2.3-27,0.7-40.5-2.7c-14.4-3.6-28.2-9-42.3-13.5c-15-4.8-30.6-7.9-45.9-11.6c-74.1-17.5-148-35.7-221-57.7c-4.3-3.6-9.6-5.3-8.6-12.1c0.8-5.6,5.7-10.5,9.4-14.4c8.5-8.8,19.2-15.5,29.7-21.6c23.7-13.7,48.9-25.1,73.2-37.7c12.4-6.5,24.7-13.7,37.9-18.6c8.6-3.2,17.4-4.4,26.4-4.2c0,0.1,0,0.3,0.1,0.4c2.6,15.8,9.9,31.4,19.5,45.1c-1.9,0.7-3.9,1.3-6.1,1.7c-12.8,2.9-24.8,5.5-28.8,19.8c-3.2,11.4,2.4,23.1,12.5,27.5c19.9,27.8,62.6,26.3,89.4,9.9c13.9-8.5,24.4-22.9,25.4-39.5c0.1-1,0.1-1.9,0.1-2.9c18,16,36.6,31.3,54.2,47.7c10.5,9.8,20.6,20.1,29.6,31.2C438.1,250.3,448,263.2,445,276.3z"/><path d="M160.5 375.1c-7.1 0-6.2 11 .8 11C168.5 386.1 167.6 375.1 160.5 375.1zM118.5 395v.8c0 7.1 11 6.2 11-.8v-.8C129.5 387.1 118.5 388 118.5 395zM121.5 367.1c-7.1 0-6.2 11 .8 11C129.5 378.1 128.6 367.1 121.5 367.1zM87.6 373.5c-1.1-1-2.6-1.5-4.1-1.4-1.5.1-2.7.8-3.7 1.9l-1 1c-2.1 2.1-1.6 5.9.5 7.8 1.1 1 2.6 1.5 4.1 1.4 1.5-.1 2.7-.8 3.7-1.9l1-1C90.2 379.1 89.7 375.4 87.6 373.5zM319.5 394.6c-.8-.7-1.7-1.2-2.8-1.4-.7-.1-1.4-.1-2.1-.1-1.4 0-2.8.9-3.7 1.9-1 1.1-1.5 2.6-1.4 4.1.1 1.4.8 2.8 1.9 3.7.1.1.2.1.3.2.2.3.5.6.7.8 1.1 1 2.6 1.5 4.1 1.4 1.4-.1 2.8-.8 3.7-1.9 1-1.2 1.4-2.5 1.4-4.1C321.5 397.5 320.8 395.7 319.5 394.6zM348.6 422.5c-1.1-1-2.6-1.5-4.1-1.4-1.4.1-2.8.8-3.7 1.9-1 1.2-1.4 2.5-1.4 4.1v1c0 1.4.9 2.8 1.9 3.7 1.1 1 2.6 1.5 4.1 1.4 1.4-.1 2.8-.8 3.7-1.9 1-1.2 1.4-2.5 1.4-4.1v-1C350.5 424.8 349.6 423.4 348.6 422.5zM386.6 405.5c-1.1-1-2.6-1.5-4.1-1.4-1.4.1-2.8.8-3.7 1.9-1 1.2-1.4 2.5-1.4 4.1v1c0 1.4.9 2.8 1.9 3.7 1.1 1 2.6 1.5 4.1 1.4 1.4-.1 2.8-.8 3.7-1.9 1-1.2 1.4-2.5 1.4-4.1v-1C388.5 407.8 387.6 406.4 386.6 405.5zM402.5 383.1c-7.1 0-6.2 11 .8 11C410.5 394.1 409.6 383.1 402.5 383.1zM246.6 390.5c-.1-.1-.2-.1-.3-.2-.2-.3-.5-.6-.7-.8-1.1-1-2.6-1.5-4.1-1.4-1.4.1-2.8.8-3.7 1.9-1 1.2-1.4 2.5-1.4 4.1 0 1.7.6 3.5 2 4.6.8.7 1.7 1.2 2.8 1.4.7.1 1.4.1 2.1.1 1.4 0 2.8-.9 3.7-1.9 1-1.1 1.5-2.6 1.4-4.1C248.3 392.8 247.7 391.4 246.6 390.5zM182.5 392.1c-7.1 0-6.2 11 .8 11C190.5 403.1 189.6 392.1 182.5 392.1zM360.6 387.5c-1.1-1-2.6-1.5-4.1-1.4-1.5.1-2.7.8-3.7 1.9l-1 1c-2.1 2.1-1.6 5.9.5 7.8 1.1 1 2.6 1.5 4.1 1.4 1.5-.1 2.7-.8 3.7-1.9l1-1C363.2 393.1 362.7 389.4 360.6 387.5zM386.5 425.1c-7.1 0-6.2 11 .8 11C394.5 436.1 393.6 425.1 386.5 425.1zM345.6 399.5c-1.2-1-2.5-1.4-4.1-1.4h-1c-1.4 0-2.8.9-3.7 1.9-1 1.1-1.5 2.6-1.4 4.1.1 1.4.8 2.8 1.9 3.7 1.2 1 2.5 1.4 4.1 1.4h1c1.4 0 2.8-.9 3.7-1.9 1-1.1 1.5-2.6 1.4-4.1C347.3 401.8 346.7 400.4 345.6 399.5z"/></svg>