<svg xmlns="http://www.w3.org/2000/svg" xmlns:xlink="http://www.w3.org/1999/xlink" viewBox="0 0 100 100"><circle cx="49" cy="50" r="34" fill="#eaa871"/><path fill="#1f212b" d="M50,85c-19.299,0-35-15.701-35-35s15.701-35,35-35s35,15.701,35,35S69.299,85,50,85z M50,17 c-18.196,0-33,14.804-33,33s14.804,33,33,33s33-14.804,33-33S68.196,17,50,17z"/><path fill="#1f212b" d="M54.5,50c-0.158,0-0.314-0.075-0.411-0.215c-0.158-0.227-0.102-0.538,0.125-0.695 c0.704-0.489,1.208-1.09,1.5-1.784c0.107-0.254,0.402-0.372,0.655-0.267c0.254,0.107,0.374,0.4,0.267,0.655 c-0.367,0.871-0.99,1.617-1.852,2.216C54.698,49.971,54.599,50,54.5,50z"/><path fill="#1f212b" d="M56.306,45c-0.218,0-0.418-0.144-0.48-0.363c-0.271-0.957-0.855-1.922-1.687-2.791 c-0.474-0.495-1.108-0.918-1.832-1.222c-0.255-0.106-0.375-0.399-0.268-0.654c0.106-0.256,0.401-0.374,0.654-0.268 c0.862,0.361,1.591,0.85,2.168,1.452c0.944,0.986,1.61,2.096,1.926,3.209c0.075,0.266-0.079,0.542-0.344,0.618 C56.397,44.994,56.352,45,56.306,45z"/><path fill="#1f212b" d="M54.821,74c-7.365,0-14.276-2.882-19.459-8.116c-8.626-8.712-8.626-22.887,0-31.598 C38.737,30.877,43.214,29,47.968,29c4.755,0,9.232,1.877,12.608,5.286c2.909,2.937,4.488,6.982,4.333,11.099 c-0.139,3.704-1.688,7.021-4.361,9.342c-4.687,4.066-11.774,4.393-16.137,0.737c-2.167-1.925-3.52-5.169-3.458-8.274 c0.05-2.518,1.02-4.676,2.729-6.076c1.615-1.322,3.65-2.048,5.74-2.048c0.027,0,0.054,0,0.081,0 c0.276,0.003,0.498,0.229,0.496,0.505c-0.003,0.276-0.238,0.496-0.504,0.495c-1.911-0.039-3.725,0.63-5.179,1.821 c-1.479,1.212-2.319,3.103-2.364,5.322c-0.057,2.825,1.165,5.769,3.111,7.498c3.984,3.338,10.502,3.02,14.829-0.736 c2.461-2.137,3.888-5.199,4.017-8.623c0.145-3.842-1.33-7.617-4.045-10.358C56.679,31.771,52.454,30,47.969,30 s-8.71,1.771-11.896,4.989c-8.243,8.323-8.243,21.867,0,30.191C41.067,70.223,47.725,73,54.821,73 c5.779,0,24.897-2.136,28.299-29.617c0.034-0.273,0.283-0.473,0.558-0.435c0.274,0.034,0.469,0.283,0.435,0.558 c-1.451,11.72-5.911,20.278-13.256,25.44C64.366,73.508,57.48,74,54.821,74z"/><circle cx="73" cy="40" r="1.5" fill="#b77748"/><circle cx="77" cy="47.5" r="1.5" fill="#b77748"/><circle cx="68.5" cy="55" r="2" fill="#b77748"/><circle cx="25" cy="36" r="1.5" fill="#b77748"/><path fill="#1f212b" d="M73,42c-1.103,0-2-0.897-2-2s0.897-2,2-2s2,0.897,2,2S74.103,42,73,42z M73,39c-0.551,0-1,0.448-1,1 s0.449,1,1,1s1-0.448,1-1S73.551,39,73,39z"/><path fill="#1f212b" d="M77,49.5c-1.103,0-2-0.897-2-2s0.897-2,2-2s2,0.897,2,2S78.103,49.5,77,49.5z M77,46.5 c-0.551,0-1,0.448-1,1s0.449,1,1,1s1-0.448,1-1S77.551,46.5,77,46.5z"/><path fill="#1f212b" d="M68.5,57.5c-1.378,0-2.5-1.121-2.5-2.5s1.122-2.5,2.5-2.5S71,53.621,71,55S69.878,57.5,68.5,57.5z M68.5,53.5c-0.827,0-1.5,0.673-1.5,1.5s0.673,1.5,1.5,1.5S70,55.827,70,55S69.327,53.5,68.5,53.5z"/><path fill="#1f212b" d="M25,38c-1.103,0-2-0.897-2-2s0.897-2,2-2s2,0.897,2,2S26.103,38,25,38z M25,35c-0.551,0-1,0.448-1,1 s0.449,1,1,1s1-0.448,1-1S25.551,35,25,35z"/><circle cx="25" cy="47" r="1.5" fill="#b77748"/><circle cx="34.5" cy="27.5" r="2" fill="#b77748"/><path fill="#1f212b" d="M25,49c-1.103,0-2-0.897-2-2s0.897-2,2-2s2,0.897,2,2S26.103,49,25,49z M25,46c-0.551,0-1,0.448-1,1 s0.449,1,1,1s1-0.448,1-1S25.551,46,25,46z"/><path fill="#1f212b" d="M34.5,30c-1.378,0-2.5-1.121-2.5-2.5s1.122-2.5,2.5-2.5s2.5,1.121,2.5,2.5S35.878,30,34.5,30z M34.5,26c-0.827,0-1.5,0.673-1.5,1.5s0.673,1.5,1.5,1.5s1.5-0.673,1.5-1.5S35.327,26,34.5,26z"/></svg>