<svg xmlns="http://www.w3.org/2000/svg" xmlns:xlink="http://www.w3.org/1999/xlink" viewBox="0 0 100 100"><path fill="#c17d48" d="M70,39c0,0-10-1.125-20-1.125S30,39,30,39c-8,1-13,6-13,11c0,4,2,6,4,7l5,5h48l5-5c2-1,4-3,4-7C83,45,78,40,70,39z"/><path fill="#1f212b" d="M74,63H26c-0.265,0-0.52-0.105-0.707-0.293l-4.889-4.889C18.36,56.75,16,54.533,16,50c0-5.944,5.835-10.987,13.876-11.992c0.113-0.013,10.183-1.133,20.124-1.133s20.011,1.12,20.112,1.131c0.004,0,0.008,0.001,0.012,0.001C78.165,39.013,84,44.056,84,50c0,4.533-2.36,6.75-4.404,7.818l-4.889,4.889C74.52,62.895,74.265,63,74,63z M26.414,61h47.172l4.707-4.707c0.076-0.076,0.164-0.139,0.26-0.188C80.84,54.962,82,52.908,82,50c0-4.116-4.247-9.021-12.118-10.007C69.589,39.96,59.728,38.875,50,38.875c-9.83,0-19.789,1.107-19.888,1.119C22.249,40.977,18,45.883,18,50c0,2.908,1.16,4.962,3.447,6.105c0.096,0.048,0.184,0.111,0.26,0.188L26.414,61z"/><path fill="#fef6aa" d="M71,37c0,5-9.402,5-21,5s-21,0-21-5c0-10,9.402-14,21-14S71,27,71,37z"/><path fill="#1f212b" d="M67.02,88H32.98c-2.227,0-4.154-1.431-4.798-3.561l-8.141-27.152l1.916-0.574l8.14,27.15C30.483,85.141,31.643,86,32.98,86H67.02c1.338,0,2.497-0.859,2.884-2.139l8.139-27.148l1.916,0.574l-8.14,27.15C71.174,86.569,69.246,88,67.02,88z"/><path fill="#1f212b" d="M50,43c-12.292,0-22,0-22-6c0-9.533,8.019-15,22-15s22,5.467,22,15C72,43,62.292,43,50,43z M50,24c-6.013,0-20,1.267-20,13c0,4,9.715,4,20,4s20,0,20-4C70,25.267,56.013,24,50,24z"/><path fill="#f15b6c" d="M58.5,21.158c0,4.782-3.806,4.329-8.5,4.329s-8.5,0.453-8.5-4.329S45.306,12.5,50,12.5S58.5,16.377,58.5,21.158z"/><path fill="#1f212b" d="M52.157,25.999c-0.339,0-0.685-0.002-1.038-0.005L50,25.988l-1.12,0.006c-2.845,0.025-5.296,0.042-6.712-1.363C41.382,23.851,41,22.716,41,21.159C41,16.109,45.038,12,50,12s9,4.109,9,9.159c0,1.557-0.382,2.693-1.168,3.472C56.591,25.862,54.554,25.999,52.157,25.999z M50,24.988l1.128,0.006c2.615,0.023,4.879,0.039,6-1.073C57.715,23.339,58,22.435,58,21.159C58,16.66,54.411,13,50,13s-8,3.66-8,8.159c0,1.277,0.285,2.18,0.873,2.763c1.121,1.112,3.386,1.093,6,1.073L50,24.988z"/><path fill="#1f212b" d="M52.588,17c-0.138,0-0.275-0.057-0.374-0.167c-0.535-0.601-0.992-0.916-0.996-0.919c-0.228-0.156-0.287-0.466-0.132-0.694c0.155-0.229,0.464-0.288,0.693-0.133c0.022,0.015,0.558,0.38,1.182,1.082c0.184,0.207,0.165,0.522-0.041,0.706C52.826,16.958,52.707,17,52.588,17z"/><path fill="#1f212b" d="M54.5,22c-0.276,0-0.5-0.224-0.5-0.5c0-0.976-0.197-1.917-0.584-2.798c-0.111-0.253,0.003-0.548,0.256-0.659c0.256-0.111,0.548,0.004,0.659,0.256C54.775,19.307,55,20.384,55,21.5C55,21.776,54.776,22,54.5,22z"/><path fill="#fdd4b2" d="M68,57.5l-6-4l-6,4l-6-4l-6,4l-6-4l-6,4l-6-4l-4.607,3.071l8.225,27.436c0.451,1.491,1.803,2.493,3.362,2.493H67.02c1.56,0,2.911-1.002,3.362-2.494l8.225-27.435L74,53.5L68,57.5z"/><path fill="#f497b0" d="M35.5,79c0,2.49-2.01,4.5-4.5,4.5c-0.85,0-1.65-0.24-2.33-0.65l-1.73-5.79c0.72-1.52,2.27-2.56,4.06-2.56C33.49,74.5,35.5,76.51,35.5,79z"/><path fill="#f497b0" d="M71.33,82.85c-0.68,0.41-1.48,0.65-2.33,0.65c-2.49,0-4.5-2.01-4.5-4.5s2.01-4.5,4.5-4.5c1.79,0,3.34,1.04,4.06,2.56L71.33,82.85z"/><path fill="#d53668" d="M53.5,75.5c0,2.209-1.567,5-3.5,5s-3.5-2.791-3.5-5H53.5z"/><path fill="#1f212b" d="M31,84c-0.91,0-1.806-0.25-2.589-0.723c-0.106-0.063-0.185-0.165-0.221-0.284l-1.729-5.79c-0.035-0.119-0.025-0.246,0.027-0.357C27.308,75.117,29.078,74,31,74c2.757,0,5,2.243,5,5S33.757,84,31,84z M29.092,82.515C29.679,82.833,30.334,83,31,83c2.206,0,4-1.794,4-4s-1.794-4-4-4c-1.475,0-2.838,0.821-3.523,2.106L29.092,82.515z"/><path fill="#1f212b" d="M69,84c-2.757,0-5-2.243-5-5s2.243-5,5-5c1.922,0,3.692,1.117,4.512,2.846c0.053,0.111,0.063,0.238,0.027,0.357l-1.729,5.79c-0.036,0.119-0.114,0.221-0.221,0.284C70.806,83.75,69.91,84,69,84z M69,75c-2.206,0-4,1.794-4,4s1.794,4,4,4c0.666,0,1.321-0.167,1.908-0.485l1.615-5.408C71.838,75.821,70.475,75,69,75z M71.33,82.85h0.01H71.33z"/><path fill="#1f212b" d="M43.966,64.666C43.985,64.775,44,64.885,44,65c0,1.105-0.895,2-2,2s-2-0.895-2-2c0-0.901,0.6-1.654,1.419-1.904C41.122,63.034,40.815,63,40.5,63c-2.481,0-4.5,2.019-4.5,4.5s2.019,4.5,4.5,4.5s4.5-2.019,4.5-4.5C45,66.42,44.602,65.442,43.966,64.666z"/><path fill="#1f212b" d="M62.966,64.666C62.985,64.775,63,64.885,63,65c0,1.105-0.895,2-2,2s-2-0.895-2-2c0-0.901,0.6-1.654,1.419-1.904C60.122,63.034,59.815,63,59.5,63c-2.481,0-4.5,2.019-4.5,4.5s2.019,4.5,4.5,4.5s4.5-2.019,4.5-4.5C64,66.42,63.602,65.442,62.966,64.666z"/><path fill="#1f212b" d="M50,81c-2.216,0-4-3.009-4-5.5c0-0.276,0.224-0.5,0.5-0.5h7c0.276,0,0.5,0.224,0.5,0.5C54,77.991,52.216,81,50,81z M47.028,76c0.206,1.882,1.515,4,2.972,4s2.766-2.118,2.972-4H47.028z"/><path fill="#1f212b" d="M67.02,87H32.98c-1.782,0-3.325-1.145-3.841-2.849l-8.226-27.437c-0.063-0.211,0.019-0.438,0.201-0.56l4.607-3.071c0.168-0.111,0.387-0.111,0.555,0L32,56.899l5.723-3.815c0.168-0.111,0.387-0.111,0.555,0L44,56.899l5.723-3.815c0.168-0.111,0.387-0.111,0.555,0L56,56.899l5.723-3.815c0.168-0.111,0.387-0.111,0.555,0L68,56.899l5.723-3.815c0.168-0.111,0.387-0.111,0.555,0l4.607,3.071c0.183,0.122,0.265,0.349,0.201,0.56L70.86,84.149C70.345,85.854,68.802,87,67.02,87z M21.978,56.782l8.119,27.081C30.483,85.141,31.643,86,32.98,86H67.02c1.338,0,2.497-0.859,2.884-2.139l8.119-27.079L74,54.101l-5.723,3.815c-0.168,0.111-0.387,0.111-0.555,0L62,54.101l-5.723,3.815c-0.168,0.111-0.387,0.111-0.555,0L50,54.101l-5.723,3.815c-0.168,0.111-0.387,0.111-0.555,0L38,54.101l-5.723,3.815c-0.168,0.111-0.387,0.111-0.555,0L26,54.101L21.978,56.782z"/></svg>